<?xml version="1.0" encoding="UTF-8" standalone="no"?>
<!-- Created with Inkscape (http://www.inkscape.org/) -->

<svg
   version="1.1"
   id="svg1"
   width="351.96667"
   height="276.37601"
   viewBox="0 0 351.96667 276.37601"
   sodipodi:docname="upload_lgfzx3ctupb7p5bazndj3u77wd.pdf"
   xmlns:inkscape="http://www.inkscape.org/namespaces/inkscape"
   xmlns:sodipodi="http://sodipodi.sourceforge.net/DTD/sodipodi-0.dtd"
   xmlns="http://www.w3.org/2000/svg"
   xmlns:svg="http://www.w3.org/2000/svg">
  <defs
     id="defs1" />
  <sodipodi:namedview
     id="namedview1"
     pagecolor="#ffffff"
     bordercolor="#000000"
     borderopacity="0.25"
     inkscape:showpageshadow="2"
     inkscape:pageopacity="0.0"
     inkscape:pagecheckerboard="0"
     inkscape:deskcolor="#d1d1d1">
    <inkscape:page
       x="0"
       y="0"
       inkscape:label="1"
       id="page1"
       width="351.96667"
       height="276.37601"
       margin="0"
       bleed="0" />
  </sodipodi:namedview>
  <g
     id="g1"
     inkscape:groupmode="layer"
     inkscape:label="1">
    <path
       id="path1"
       d="m 17.00804,113.38724 c 0,9.39338 -7.61465,17.00804 -17.00804,17.00804 -9.39339,0 -17.00804,-7.61466 -17.00804,-17.00804 0,-9.3934 7.61465,-17.00806 17.00804,-17.00806 9.39339,0 17.00804,7.61466 17.00804,17.00806 z"
       style="fill:none;stroke:#000000;stroke-width:1.19553;stroke-linecap:butt;stroke-linejoin:miter;stroke-miterlimit:10;stroke-dasharray:none;stroke-opacity:1"
       transform="matrix(1.3333333,0,0,-1.3333333,175.984,175.98267)" />
    <path
       id="path2"
       d="m 2.9307344,-6.3754766 c 0,-0.234375 0,-0.2578125 -0.234375,-0.2578125 -0.609375,0.6328125 -1.4882813,0.6328125 -1.80468753,0.6328125 v 0.3164063 c 0.19921873,0 0.78515623,0 1.30078123,-0.2578125 v 5.15624999 c 0,0.3515625 -0.035156,0.48046875 -0.9257812,0.48046875 H 0.95026562 V -4.765625e-4 C 1.3018281,-0.03563281 2.1572969,-0.03563281 2.5557344,-0.03563281 c 0.3984375,0 1.265625,0 1.6171875,0.0351562475 V -0.30516406 H 3.8565156 c -0.9023437,0 -0.9257812,-0.1171875 -0.9257812,-0.48046875 z m 0,0"
       style="fill:#000000;fill-opacity:1;fill-rule:nonzero;stroke:none"
       aria-label="1"
       transform="matrix(1.3333333,0,0,1.3333333,172.66267,29.082667)" />
    <path
       id="path3"
       d="m -96.37918,56.69362 c 0,9.39338 -7.61466,17.00804 -17.00806,17.00804 -9.39338,0 -17.00804,-7.61466 -17.00804,-17.00804 0,-9.3934 7.61466,-17.00806 17.00804,-17.00806 9.3934,0 17.00806,7.61466 17.00806,17.00806 z"
       style="fill:none;stroke:#000000;stroke-width:1.19553;stroke-linecap:butt;stroke-linejoin:miter;stroke-miterlimit:10;stroke-dasharray:none;stroke-opacity:1"
       transform="matrix(1.3333333,0,0,-1.3333333,175.984,175.98267)" />
    <path
       id="path4"
       d="m 1.2649766,-0.7628125 1.0546875,-1.03125 c 1.5585937,-1.3710938 2.15625,-1.9101563 2.15625,-2.90625 0,-1.1367188 -0.9023438,-1.9335938 -2.1210938,-1.9335938 -1.125,0 -1.85156249,0.9140625 -1.85156249,1.8046875 0,0.5507813 0.4921875,0.5507813 0.52734379,0.5507813 0.1640625,0 0.515625,-0.1171875 0.515625,-0.5273438 0,-0.2578125 -0.1875,-0.515625 -0.5273438,-0.515625 -0.0820312,0 -0.10546874,0 -0.12890624,0.011719 0.22265624,-0.6445313 0.76171874,-1.0195313 1.33593754,-1.0195313 0.9140625,0 1.3359375,0.8085938 1.3359375,1.6289063 0,0.796875 -0.4921875,1.5820312 -1.0429688,2.203125 L 0.60872656,-0.364375 C 0.50325781,-0.25890625 0.50325781,-0.23546875 0.50325781,-0.00109375 H 4.1946641 l 0.28125,-1.73437505 H 4.2181016 c -0.046875,0.3046875 -0.1171875,0.7382813 -0.2109375,0.89062505 -0.070312,0.0820313 -0.7265625,0.0820313 -0.9492188,0.0820313 z m 0,0"
       style="fill:#000000;fill-opacity:1;fill-rule:nonzero;stroke:none"
       aria-label="2"
       transform="matrix(1.3333333,0,0,1.3333333,21.481333,104.67333)" />
    <path
       id="path5"
       d="m 130.39528,56.69362 c 0,9.39338 -7.61466,17.00804 -17.00804,17.00804 -9.3934,0 -17.00806,-7.61466 -17.00806,-17.00804 0,-9.3934 7.61466,-17.00806 17.00806,-17.00806 9.39338,0 17.00804,7.61466 17.00804,17.00806 z"
       style="fill:none;stroke:#000000;stroke-width:1.19553;stroke-linecap:butt;stroke-linejoin:miter;stroke-miterlimit:10;stroke-dasharray:none;stroke-opacity:1"
       transform="matrix(1.3333333,0,0,-1.3333333,175.984,175.98267)" />
    <path
       id="path6"
       d="m 2.8943437,-3.505 c 0.8085938,-0.2695313 1.3945313,-0.9726563 1.3945313,-1.7578125 0,-0.8203125 -0.8789063,-1.3710938 -1.8398438,-1.3710938 -1.0078125,0 -1.75781245,0.5976563 -1.75781245,1.3476563 0,0.3398437 0.2109375,0.5273437 0.50390625,0.5273437 0.3046875,0 0.5039062,-0.2226562 0.5039062,-0.515625 0,-0.4921875 -0.46875,-0.4921875 -0.609375,-0.4921875 0.3046875,-0.4921875 0.9609375,-0.6210937 1.3242188,-0.6210937 0.4101562,0 0.9492187,0.2226562 0.9492187,1.1132812 0,0.1289063 -0.011719,0.703125 -0.2695312,1.1367188 -0.3046875,0.4804687 -0.6445313,0.515625 -0.890625,0.515625 -0.082031,0.011719 -0.3164063,0.035156 -0.3867188,0.035156 -0.082031,0.011719 -0.1523437,0.023437 -0.1523437,0.1171875 0,0.1171875 0.070312,0.1171875 0.234375,0.1171875 h 0.4453125 c 0.8085937,0 1.1835937,0.6679688 1.1835937,1.6523438 0,1.34765625 -0.6914062,1.640625 -1.125,1.640625 -0.4335937,0 -1.171875,-0.17578125 -1.52343745,-0.76171875 0.35156245,0.0585938 0.65624995,-0.1640625 0.65624995,-0.53906255 0,-0.3632812 -0.2695312,-0.5625 -0.56249995,-0.5625 -0.234375,0 -0.55078125,0.140625 -0.55078125,0.5742188 0,0.9140625 0.9257812,1.5703125 2.0039062,1.5703125 1.21875,0 2.1210938,-0.9140625 2.1210938,-1.921875 0,-0.8203125 -0.6210938,-1.59375 -1.6523438,-1.8046873 z m 0,0"
       style="fill:#000000;fill-opacity:1;fill-rule:nonzero;stroke:none"
       aria-label="3"
       transform="matrix(1.3333333,0,0,1.3333333,323.844,104.67333)" />
    <path
       id="path7"
       d="m -96.37918,-56.69362 c 0,9.3934 -7.61466,17.00806 -17.00806,17.00806 -9.39338,0 -17.00804,-7.61466 -17.00804,-17.00806 0,-9.39338 7.61466,-17.00804 17.00804,-17.00804 9.3934,0 17.00806,7.61466 17.00806,17.00804 z"
       style="fill:none;stroke:#000000;stroke-width:1.19553;stroke-linecap:butt;stroke-linejoin:miter;stroke-miterlimit:10;stroke-dasharray:none;stroke-opacity:1"
       transform="matrix(1.3333333,0,0,-1.3333333,175.984,175.98267)" />
    <path
       id="path8"
       d="m 2.9290391,-1.6419531 v 0.86718748 c 0,0.3515625 -0.023437,0.46875 -0.7617188,0.46875 H 1.9563828 v 0.3046875 c 0.4101563,-0.03515625 0.9375,-0.03515625 1.3476563,-0.03515625 0.421875,0 0.9492187,0 1.359375,0.03515625 v -0.3046875 H 4.4524766 c -0.7382813,0 -0.7617188,-0.1171875 -0.7617188,-0.46875 V -1.6419531 H 4.6868516 V -1.9583594 H 3.6907578 v -4.5234375 c 0,-0.1992187 0,-0.2578125 -0.1523437,-0.2578125 -0.09375,0 -0.1171875,0 -0.1992188,0.1171875 l -3.05859374,4.6640625 v 0.3164063 z m 0.058594,-0.3164063 H 0.56185156 L 2.9876328,-5.6732031 Z m 0,0"
       style="fill:#000000;fill-opacity:1;fill-rule:nonzero;stroke:none"
       aria-label="4"
       transform="matrix(1.3333333,0,0,1.3333333,21.481333,255.85333)" />
    <path
       id="path9"
       d="m 130.39528,-56.69362 c 0,9.3934 -7.61466,17.00806 -17.00804,17.00806 -9.3934,0 -17.00806,-7.61466 -17.00806,-17.00806 0,-9.39338 7.61466,-17.00804 17.00806,-17.00804 9.39338,0 17.00804,7.61466 17.00804,17.00804 z"
       style="fill:none;stroke:#000000;stroke-width:1.19553;stroke-linecap:butt;stroke-linejoin:miter;stroke-miterlimit:10;stroke-dasharray:none;stroke-opacity:1"
       transform="matrix(1.3333333,0,0,-1.3333333,175.984,175.98267)" />
    <path
       id="path10"
       d="m 4.476375,-2.0052344 c 0,-1.1835937 -0.8203125,-2.1796875 -1.8984375,-2.1796875 -0.4804688,0 -0.9023438,0.1640625 -1.265625,0.5039063 v -1.9335938 c 0.1992187,0.058594 0.5273437,0.1289063 0.84375,0.1289063 1.2304687,0 1.9335937,-0.9140625 1.9335937,-1.0429688 0,-0.058594 -0.035156,-0.1054687 -0.1054687,-0.1054687 -0.011719,0 -0.035156,0 -0.082031,0.023437 -0.1992187,0.09375 -0.6796875,0.2929687 -1.3476562,0.2929687 -0.3984375,0 -0.8554688,-0.070312 -1.3242188,-0.28125 -0.082031,-0.023437 -0.1054687,-0.023437 -0.1289062,-0.023437 -0.09375,0 -0.09375,0.082031 -0.09375,0.234375 v 2.953125 c 0,0.1757813 0,0.2578125 0.140625,0.2578125 0.070312,0 0.082031,-0.035156 0.1289062,-0.09375 C 1.382625,-3.4232031 1.757625,-3.9622656 2.5545,-3.9622656 c 0.5273437,0 0.7734375,0.4570312 0.8554687,0.6328125 0.1523438,0.375 0.1757813,0.7617187 0.1757813,1.2539062 0,0.3515625 0,0.9492188 -0.234375,1.37109378 -0.2460938,0.38671875 -0.609375,0.64453125 -1.0664063,0.64453125 -0.7265625,0 -1.3007812,-0.52734375 -1.4648437,-1.11328123 0.0234375,0.011719 0.0585938,0.011719 0.1640625,0.011719 0.328125,0 0.5039062,-0.2460937 0.5039062,-0.4804687 0,-0.2460938 -0.1757812,-0.4921875 -0.5039062,-0.4921875 -0.140625,0 -0.48046875,0.070312 -0.48046875,0.5273437 0,0.85546878 0.67968745,1.82812503 1.79296875,1.82812503 1.1601562,0 2.1796875,-0.9609375 2.1796875,-2.22656283 z m 0,0"
       style="fill:#000000;fill-opacity:1;fill-rule:nonzero;stroke:none"
       aria-label="5"
       transform="matrix(1.3333333,0,0,1.3333333,323.844,255.85333)" />
    <path
       id="path11"
       d="m 17.00804,-56.69362 c 0,9.3934 -7.61465,17.00806 -17.00804,17.00806 -9.39339,0 -17.00804,-7.61466 -17.00804,-17.00806 0,-9.39338 7.61465,-17.00804 17.00804,-17.00804 9.39339,0 17.00804,7.61466 17.00804,17.00804 z"
       style="fill:none;stroke:#000000;stroke-width:1.19553;stroke-linecap:butt;stroke-linejoin:miter;stroke-miterlimit:10;stroke-dasharray:none;stroke-opacity:1"
       transform="matrix(1.3333333,0,0,-1.3333333,175.984,175.98267)" />
    <path
       id="path12"
       d="m 1.3135469,-3.2708594 v -0.234375 c 0,-2.5195312 1.2421875,-2.8828125 1.7460937,-2.8828125 0.234375,0 0.65625,0.058594 0.8789063,0.3984375 -0.1523438,0 -0.5507813,0 -0.5507813,0.4453125 0,0.3164063 0.234375,0.4570313 0.4570313,0.4570313 0.1640625,0 0.4570312,-0.082031 0.4570312,-0.46875 0,-0.5976563 -0.4335937,-1.078125 -1.265625,-1.078125 -1.2773437,0 -2.61328123,1.2890625 -2.61328123,3.4804687 0,2.66015628 1.14843753,3.37500003 2.07421873,3.37500003 1.1132813,0 2.0507813,-0.9375 2.0507813,-2.25000003 0,-1.265625 -0.8789063,-2.2265625 -1.9921875,-2.2265625 -0.6679688,0 -1.0429688,0.5039063 -1.2421875,0.984375 z m 1.1835937,3.21093753 c -0.6210937,0 -0.9257812,-0.59765625 -0.984375,-0.75 C 1.3369844,-1.2786719 1.3369844,-2.0755469 1.3369844,-2.2513281 c 0,-0.7734375 0.3164062,-1.7695313 1.21875,-1.7695313 0.1523437,0 0.609375,0 0.9257812,0.609375 0.1757813,0.375 0.1757813,0.8789063 0.1757813,1.3710938 0,0.4804687 0,0.9726562 -0.1640625,1.33593748 -0.3046875,0.59765625 -0.7617188,0.64453125 -0.9960938,0.64453125 z m 0,0"
       style="fill:#000000;fill-opacity:1;fill-rule:nonzero;stroke:none"
       aria-label="6"
       transform="matrix(1.3333333,0,0,1.3333333,172.66267,255.85333)" />
    <path
       id="path13"
       d="M 15.74597,105.51439 97.64125,64.56645"
       style="fill:none;stroke:#000000;stroke-width:1.19553;stroke-linecap:butt;stroke-linejoin:miter;stroke-miterlimit:10;stroke-dasharray:none;stroke-opacity:1"
       transform="matrix(1.3333333,0,0,-1.3333333,175.984,175.98267)" />
    <path
       id="path14"
       d="M 0,95.78142 V -39.0878"
       style="fill:none;stroke:#000000;stroke-width:1.19553;stroke-linecap:butt;stroke-linejoin:miter;stroke-miterlimit:10;stroke-dasharray:none;stroke-opacity:1"
       transform="matrix(1.3333333,0,0,-1.3333333,175.984,175.98267)" />
    <path
       id="path15"
       d="M -113.38724,39.0878 V -39.0878"
       style="fill:none;stroke:#000000;stroke-width:1.19553;stroke-linecap:butt;stroke-linejoin:miter;stroke-miterlimit:10;stroke-dasharray:none;stroke-opacity:1"
       transform="matrix(1.3333333,0,0,-1.3333333,175.984,175.98267)" />
    <path
       id="path16"
       d="m -100.93805,44.24443 88.48886,-88.48886"
       style="fill:none;stroke:#000000;stroke-width:1.19553;stroke-linecap:butt;stroke-linejoin:miter;stroke-miterlimit:10;stroke-dasharray:none;stroke-opacity:1"
       transform="matrix(1.3333333,0,0,-1.3333333,175.984,175.98267)" />
    <path
       id="path17"
       d="M 113.38724,39.0878 V -39.0878"
       style="fill:none;stroke:#000000;stroke-width:1.19553;stroke-linecap:butt;stroke-linejoin:miter;stroke-miterlimit:10;stroke-dasharray:none;stroke-opacity:1"
       transform="matrix(1.3333333,0,0,-1.3333333,175.984,175.98267)" />
    <path
       id="path18"
       d="M 100.93805,44.24443 12.44919,-44.24443"
       style="fill:none;stroke:#000000;stroke-width:1.19553;stroke-linecap:butt;stroke-linejoin:miter;stroke-miterlimit:10;stroke-dasharray:none;stroke-opacity:1"
       transform="matrix(1.3333333,0,0,-1.3333333,175.984,175.98267)" />
    <path
       id="path19"
       d="M -95.78142,-56.69362 H -17.6058"
       style="fill:none;stroke:#000000;stroke-width:1.19553;stroke-linecap:butt;stroke-linejoin:miter;stroke-miterlimit:10;stroke-dasharray:none;stroke-opacity:1"
       transform="matrix(1.3333333,0,0,-1.3333333,175.984,175.98267)" />
    <path
       id="path20"
       d="M 17.6058,-56.69362 H 95.78142"
       style="fill:none;stroke:#000000;stroke-width:1.19553;stroke-linecap:butt;stroke-linejoin:miter;stroke-miterlimit:10;stroke-dasharray:none;stroke-opacity:1"
       transform="matrix(1.3333333,0,0,-1.3333333,175.984,175.98267)" />
    <path
       id="path21"
       d="m -101.28325,69.47726 c 25.21192,26.6281 47.36411,37.7054 83.79378,41.89757"
       style="fill:none;stroke:#000000;stroke-width:1.19553;stroke-linecap:butt;stroke-linejoin:miter;stroke-miterlimit:10;stroke-dasharray:none;stroke-opacity:1"
       transform="matrix(1.3333333,0,0,-1.3333333,175.984,175.98267)" />
    <path
       id="path22"
       d="m -95.89775,58.70601 c 36.42967,4.19217 58.58186,15.26947 83.79378,41.89757"
       style="fill:none;stroke:#000000;stroke-width:1.19553;stroke-linecap:butt;stroke-linejoin:miter;stroke-miterlimit:10;stroke-dasharray:none;stroke-opacity:1"
       transform="matrix(1.3333333,0,0,-1.3333333,175.984,175.98267)" />
    <path
       id="path23"
       d="m 121.3799,72.38023 c 4.9816,4.9816 4.9816,13.0582 0,18.0398 -4.9816,4.9816 -13.0582,4.9816 -18.0398,0 -3.22212,-3.22213 -4.48088,-7.91993 -3.30151,-12.32141 0.67741,-2.52815 2.11696,-4.78769 4.12193,-6.4701"
       style="fill:none;stroke:#000000;stroke-width:1.19553;stroke-linecap:butt;stroke-linejoin:miter;stroke-miterlimit:10;stroke-dasharray:none;stroke-opacity:1"
       transform="matrix(1.3333333,0,0,-1.3333333,175.984,175.98267)" />
  </g>
</svg>
