<?xml version="1.0" encoding="UTF-8" standalone="no"?>
<!-- Created with Inkscape (http://www.inkscape.org/) -->

<svg
   version="1.1"
   id="svg1"
   width="605.19464"
   height="189.448"
   viewBox="0 0 605.19464 189.448"
   sodipodi:docname="upload_dwmijc4tuslxx5pxvcfh4wtscd.pdf"
   xmlns:inkscape="http://www.inkscape.org/namespaces/inkscape"
   xmlns:sodipodi="http://sodipodi.sourceforge.net/DTD/sodipodi-0.dtd"
   xmlns="http://www.w3.org/2000/svg"
   xmlns:svg="http://www.w3.org/2000/svg">
  <defs
     id="defs1" />
  <sodipodi:namedview
     id="namedview1"
     pagecolor="#ffffff"
     bordercolor="#000000"
     borderopacity="0.25"
     inkscape:showpageshadow="2"
     inkscape:pageopacity="0.0"
     inkscape:pagecheckerboard="0"
     inkscape:deskcolor="#d1d1d1">
    <inkscape:page
       x="0"
       y="0"
       inkscape:label="1"
       id="page1"
       width="605.19464"
       height="189.448"
       margin="0"
       bleed="0" />
  </sodipodi:namedview>
  <g
     id="g1"
     inkscape:groupmode="layer"
     inkscape:label="1">
    <path
       id="path1"
       d="m 12.75604,0 c 0,7.04504 -5.711,12.75604 -12.75604,12.75604 -7.04504,0 -12.75604,-5.711 -12.75604,-12.75604 0,-7.04504 5.711,-12.75604 12.75604,-12.75604 7.04504,0 12.75604,5.711 12.75604,12.75604 z"
       style="fill:none;stroke:#000000;stroke-width:1.19553;stroke-linecap:butt;stroke-linejoin:miter;stroke-miterlimit:10;stroke-dasharray:none;stroke-opacity:1"
       transform="matrix(1.3333333,0,0,-1.3333333,19.133333,94.724)" />
    <path
       id="path2"
       d="m 2.9300625,-6.3750703 c 0,-0.234375 0,-0.2578125 -0.234375,-0.2578125 C 2.0863125,-6.0000703 1.2074062,-6.0000703 0.891,-6.0000703 v 0.3164062 c 0.1992187,0 0.7851562,0 1.3007812,-0.2578125 v 5.15625004 c 0,0.3515625 -0.035156,0.48046875 -0.9257812,0.48046875 H 0.94959375 V -7.03125e-5 C 1.3011562,-0.03522656 2.156625,-0.03522656 2.5550625,-0.03522656 c 0.3984375,0 1.265625,0 1.6171875,0.0351562475 V -0.30475781 H 3.8558437 c -0.9023437,0 -0.9257812,-0.1171875 -0.9257812,-0.48046875 z m 0,0"
       style="fill:#000000;fill-opacity:1;fill-rule:nonzero;stroke:none"
       aria-label="1"
       transform="matrix(1.3333333,0,0,1.3333333,15.812,99.004)" />
    <path
       id="path3"
       d="m 69.44966,56.69362 c 0,7.04504 -5.711,12.75604 -12.75604,12.75604 -7.04506,0 -12.75606,-5.711 -12.75606,-12.75604 0,-7.04506 5.711,-12.75606 12.75606,-12.75606 7.04504,0 12.75604,5.711 12.75604,12.75606 z"
       style="fill:none;stroke:#000000;stroke-width:1.19553;stroke-linecap:butt;stroke-linejoin:miter;stroke-miterlimit:10;stroke-dasharray:none;stroke-opacity:1"
       transform="matrix(1.3333333,0,0,-1.3333333,19.133333,94.724)" />
    <path
       id="path4"
       d="M 1.2653828,-0.76117187 2.3200703,-1.7924219 c 1.5585938,-1.3710937 2.15625,-1.9101562 2.15625,-2.90625 0,-1.1367187 -0.9023437,-1.9335937 -2.1210937,-1.9335937 -1.125,0 -1.85156254,0.9140625 -1.85156254,1.8046875 0,0.5507812 0.4921875,0.5507812 0.52734374,0.5507812 0.1640625,0 0.515625,-0.1171875 0.515625,-0.5273437 0,-0.2578125 -0.1875,-0.515625 -0.5273437,-0.515625 -0.0820313,0 -0.10546879,0 -0.12890629,0.011719 0.22265629,-0.6445312 0.76171879,-1.0195312 1.33593749,-1.0195312 0.9140625,0 1.3359375,0.8085937 1.3359375,1.6289062 0,0.796875 -0.4921875,1.5820313 -1.0429687,2.203125 L 0.60913281,-0.36273437 C 0.50366406,-0.25726562 0.50366406,-0.23382812 0.50366406,5.46875e-4 H 4.1950703 L 4.4763203,-1.7338281 H 4.2185078 c -0.046875,0.3046875 -0.1171875,0.73828123 -0.2109375,0.89062498 -0.070313,0.0820313 -0.7265625,0.0820313 -0.9492187,0.0820313 z m 0,0"
       style="fill:#000000;fill-opacity:1;fill-rule:nonzero;stroke:none"
       aria-label="2"
       transform="matrix(1.3333333,0,0,1.3333333,91.402667,23.413333)" />
    <path
       id="path5"
       d="m 126.1433,56.69362 c 0,7.04504 -5.71102,12.75604 -12.75606,12.75604 -7.04506,0 -12.75606,-5.711 -12.75606,-12.75604 0,-7.04506 5.711,-12.75606 12.75606,-12.75606 7.04504,0 12.75606,5.711 12.75606,12.75606 z"
       style="fill:none;stroke:#000000;stroke-width:1.19553;stroke-linecap:butt;stroke-linejoin:miter;stroke-miterlimit:10;stroke-dasharray:none;stroke-opacity:1"
       transform="matrix(1.3333333,0,0,-1.3333333,19.133333,94.724)" />
    <path
       id="path6"
       d="m 2.8936719,-3.5033594 c 0.8085937,-0.2695312 1.3945312,-0.9726562 1.3945312,-1.7578125 0,-0.8203125 -0.8789062,-1.3710937 -1.8398437,-1.3710937 -1.0078125,0 -1.75781252,0.5976562 -1.75781252,1.3476562 0,0.3398438 0.2109375,0.5273438 0.50390622,0.5273438 0.3046875,0 0.5039063,-0.2226563 0.5039063,-0.515625 0,-0.4921875 -0.46875,-0.4921875 -0.609375,-0.4921875 0.3046875,-0.4921875 0.9609375,-0.6210938 1.3242187,-0.6210938 0.4101563,0 0.9492188,0.2226563 0.9492188,1.1132813 0,0.1289062 -0.011719,0.703125 -0.2695313,1.1367187 -0.3046875,0.4804688 -0.6445312,0.515625 -0.890625,0.515625 -0.082031,0.011719 -0.3164062,0.035156 -0.3867187,0.035156 -0.082031,0.011719 -0.1523438,0.023437 -0.1523438,0.1171875 0,0.1171875 0.070312,0.1171875 0.234375,0.1171875 h 0.4453125 c 0.8085938,0 1.1835938,0.6679687 1.1835938,1.6523437 0,1.34765628 -0.6914063,1.64062503 -1.125,1.64062503 -0.4335938,0 -1.171875,-0.17578125 -1.52343752,-0.76171875 0.35156252,0.0585938 0.65625002,-0.1640625 0.65625002,-0.53906248 0,-0.3632813 -0.2695313,-0.5625 -0.56250002,-0.5625 -0.234375,0 -0.55078125,0.140625 -0.55078125,0.5742187 0,0.91406253 0.92578127,1.57031253 2.00390627,1.57031253 1.21875,0 2.1210937,-0.9140625 2.1210937,-1.92187503 0,-0.8203125 -0.6210937,-1.59375 -1.6523437,-1.8046872 z m 0,0"
       style="fill:#000000;fill-opacity:1;fill-rule:nonzero;stroke:none"
       aria-label="3"
       transform="matrix(1.3333333,0,0,1.3333333,166.99333,23.413333)" />
    <path
       id="path7"
       d="m 182.83691,0 c 0,7.04504 -5.71101,12.75604 -12.75605,12.75604 -7.04506,0 -12.75606,-5.711 -12.75606,-12.75604 0,-7.04504 5.711,-12.75604 12.75606,-12.75604 7.04504,0 12.75605,5.711 12.75605,12.75604 z"
       style="fill:none;stroke:#000000;stroke-width:1.19553;stroke-linecap:butt;stroke-linejoin:miter;stroke-miterlimit:10;stroke-dasharray:none;stroke-opacity:1"
       transform="matrix(1.3333333,0,0,-1.3333333,19.133333,94.724)" />
    <path
       id="path8"
       d="m 2.9311406,-1.6406953 v 0.86718749 c 0,0.3515625 -0.023437,0.46875 -0.7617187,0.46875 H 1.9584844 V -7.03125e-5 C 2.3686406,-0.03522656 2.8959844,-0.03522656 3.3061406,-0.03522656 c 0.421875,0 0.9492188,0 1.359375,0.0351562475 V -0.30475781 H 4.4545781 c -0.7382812,0 -0.7617187,-0.1171875 -0.7617187,-0.46875 V -1.6406953 H 4.6889531 V -1.9571016 H 3.6928594 v -4.5234375 c 0,-0.1992187 0,-0.2578125 -0.1523438,-0.2578125 -0.09375,0 -0.1171875,0 -0.1992187,0.1171875 l -3.05859377,4.6640625 v 0.3164063 z m 0.058594,-0.3164063 H 0.56395313 L 2.9897344,-5.6719453 Z m 0,0"
       style="fill:#000000;fill-opacity:1;fill-rule:nonzero;stroke:none"
       aria-label="4"
       transform="matrix(1.3333333,0,0,1.3333333,242.584,99.004)" />
    <path
       id="path9"
       d="m 97.79648,-56.69362 c 0,7.04506 -5.711,12.75606 -12.75606,12.75606 -7.04504,0 -12.75606,-5.711 -12.75606,-12.75606 0,-7.04504 5.71102,-12.75604 12.75606,-12.75604 7.04506,0 12.75606,5.711 12.75606,12.75604 z"
       style="fill:none;stroke:#000000;stroke-width:1.19553;stroke-linecap:butt;stroke-linejoin:miter;stroke-miterlimit:10;stroke-dasharray:none;stroke-opacity:1"
       transform="matrix(1.3333333,0,0,-1.3333333,19.133333,94.724)" />
    <path
       id="path10"
       d="m 4.4769766,-2.0045938 c 0,-1.1835937 -0.8203125,-2.1796875 -1.8984375,-2.1796875 -0.4804688,0 -0.9023438,0.1640625 -1.265625,0.5039063 v -1.9335938 c 0.1992187,0.058594 0.5273437,0.1289063 0.84375,0.1289063 1.2304687,0 1.9335937,-0.9140625 1.9335937,-1.0429688 0,-0.058594 -0.035156,-0.1054687 -0.1054687,-0.1054687 -0.011719,0 -0.035156,0 -0.082031,0.023437 -0.1992187,0.09375 -0.6796875,0.2929687 -1.3476562,0.2929687 -0.3984375,0 -0.8554688,-0.070312 -1.3242188,-0.28125 -0.082031,-0.023437 -0.1054687,-0.023437 -0.1289062,-0.023437 -0.09375,0 -0.09375,0.082031 -0.09375,0.234375 v 2.953125 c 0,0.1757813 0,0.2578125 0.140625,0.2578125 0.070312,0 0.082031,-0.035156 0.1289062,-0.09375 0.1054688,-0.1523437 0.4804688,-0.6914062 1.2773438,-0.6914062 0.5273437,0 0.7734375,0.4570312 0.8554687,0.6328125 0.1523438,0.375 0.1757813,0.7617187 0.1757813,1.2539062 0,0.3515625 0,0.9492188 -0.234375,1.3710938 -0.2460938,0.38671875 -0.609375,0.64453125 -1.0664063,0.64453125 -0.7265625,0 -1.30078124,-0.52734375 -1.46484374,-1.11328125 0.0234375,0.011719 0.0585938,0.011719 0.1640625,0.011719 0.32812504,0 0.50390624,-0.2460937 0.50390624,-0.4804687 0,-0.2460938 -0.1757812,-0.4921875 -0.50390624,-0.4921875 -0.140625,0 -0.48046875,0.070312 -0.48046875,0.5273437 0,0.8554688 0.67968749,1.82812505 1.79296879,1.82812505 1.1601562,0 2.1796875,-0.9609375 2.1796872,-2.22656285 z m 0,0"
       style="fill:#000000;fill-opacity:1;fill-rule:nonzero;stroke:none"
       aria-label="5"
       transform="matrix(1.3333333,0,0,1.3333333,129.19867,174.59467)" />
    <path
       id="path11"
       d="M 9.44257,9.44257 47.25104,47.25104"
       style="fill:none;stroke:#000000;stroke-width:1.19553;stroke-linecap:butt;stroke-linejoin:miter;stroke-miterlimit:10;stroke-dasharray:none;stroke-opacity:1"
       transform="matrix(1.3333333,0,0,-1.3333333,19.133333,94.724)" />
    <path
       id="path12"
       d="m 70.04742,56.69362 h 29.986"
       style="fill:none;stroke:#000000;stroke-width:1.19553;stroke-linecap:butt;stroke-linejoin:miter;stroke-miterlimit:10;stroke-dasharray:none;stroke-opacity:1"
       transform="matrix(1.3333333,0,0,-1.3333333,19.133333,94.724)" />
    <path
       id="path13"
       d="M 122.8298,47.25104 160.63828,9.44257"
       style="fill:none;stroke:#000000;stroke-width:1.19553;stroke-linecap:butt;stroke-linejoin:miter;stroke-miterlimit:10;stroke-dasharray:none;stroke-opacity:1"
       transform="matrix(1.3333333,0,0,-1.3333333,19.133333,94.724)" />
    <path
       id="path14"
       d="M 158.97028,-7.40697 96.151,-49.28664"
       style="fill:none;stroke:#000000;stroke-width:1.19553;stroke-linecap:butt;stroke-linejoin:miter;stroke-miterlimit:10;stroke-dasharray:none;stroke-opacity:1"
       transform="matrix(1.3333333,0,0,-1.3333333,19.133333,94.724)" />
    <path
       id="path15"
       d="M 73.92984,-49.28664 11.11057,-7.40697"
       style="fill:none;stroke:#000000;stroke-width:1.19553;stroke-linecap:butt;stroke-linejoin:miter;stroke-miterlimit:10;stroke-dasharray:none;stroke-opacity:1"
       transform="matrix(1.3333333,0,0,-1.3333333,19.133333,94.724)" />
    <path
       id="path16"
       d="m 324.57095,56.69362 c 0,7.04504 -5.711,12.75604 -12.75605,12.75604 -7.04505,0 -12.75606,-5.711 -12.75606,-12.75604 0,-7.04506 5.71101,-12.75606 12.75606,-12.75606 7.04505,0 12.75605,5.711 12.75605,12.75606 z"
       style="fill:none;stroke:#000000;stroke-width:1.19553;stroke-linecap:butt;stroke-linejoin:miter;stroke-miterlimit:10;stroke-dasharray:none;stroke-opacity:1"
       transform="matrix(1.3333333,0,0,-1.3333333,19.133333,94.724)" />
    <path
       id="path17"
       d="M 3.9597656,-6.9375937 C 3.9128906,-7.0665 3.8894531,-7.1368125 3.7371094,-7.1368125 c -0.1640625,0 -0.1875,0.058594 -0.2460938,0.1992188 l -2.0625,5.9648437 C 1.2527344,-0.46884375 0.85429688,-0.3165 0.31523438,-0.30478125 V -9.375e-5 C 0.54960938,-0.0118125 0.97148438,-0.03525 1.3347656,-0.03525 c 0.3046875,0 0.8203125,0.0234375 1.1484375,0.03515625 v -0.3046875 c -0.5039062,0 -0.75,-0.2578125 -0.75,-0.515625 0,-0.0234375 0.011719,-0.12890625 0.023437,-0.140625 L 2.2136719,-2.2735312 h 2.4609375 l 0.5273437,1.52343745 c 0.011719,0.046875 0.023437,0.10546875 0.023437,0.140625 0,0.3046875 -0.5507812,0.3046875 -0.8203125,0.3046875 V -9.375e-5 C 4.7566406,-0.03525 5.4597656,-0.03525 5.8347656,-0.03525 c 0.4335938,0 0.890625,0.01171875 1.3007813,0.03515625 v -0.3046875 H 6.9597656 c -0.5976562,0 -0.7382812,-0.0703125 -0.84375,-0.3984375 z m -0.5273437,1.125 1.125,3.234375 H 2.3191406 Z m 0,0"
       style="fill:#000000;fill-opacity:1;fill-rule:nonzero;stroke:none"
       aria-label="A"
       transform="matrix(1.3333333,0,0,1.3333333,429.9,23.672)" />
    <path
       id="path18"
       d="m 381.26457,0 c 0,7.04504 -5.711,12.75604 -12.75606,12.75604 -7.04504,0 -12.75604,-5.711 -12.75604,-12.75604 0,-7.04504 5.711,-12.75604 12.75604,-12.75604 7.04506,0 12.75606,5.711 12.75606,12.75604 z"
       style="fill:none;stroke:#000000;stroke-width:1.19553;stroke-linecap:butt;stroke-linejoin:miter;stroke-miterlimit:10;stroke-dasharray:none;stroke-opacity:1"
       transform="matrix(1.3333333,0,0,-1.3333333,19.133333,94.724)" />
    <path
       id="path19"
       d="m 2.2140625,-3.6452422 v -2.4492187 c 0,-0.328125 0.011719,-0.3984375 0.4804688,-0.3984375 h 1.2421875 c 0.9609375,0 1.3125,0.84375 1.3125,1.3710937 0,0.6328125 -0.4921875,1.4765625 -1.59375,1.4765625 z m 2.34375,0.09375 c 0.9726563,-0.1992187 1.6523438,-0.8320312 1.6523438,-1.5703125 0,-0.8671875 -0.9140625,-1.6875 -2.203125,-1.6875 H 0.3625 v 0.3164063 h 0.234375 c 0.7617188,0 0.7851563,0.1054687 0.7851563,0.46875 v 5.24999996 c 0,0.3515625 -0.023437,0.46875 -0.7851563,0.46875 H 0.3625 v 0.3046875025 h 3.9023438 c 1.3242187,0 2.2148437,-0.8906250025 2.2148437,-1.8281249625 0,-0.8671875 -0.8085937,-1.6054688 -1.921875,-1.7226563 z m -0.609375,3.24609376 H 2.6945313 c -0.46875,0 -0.4804688,-0.0703125 -0.4804688,-0.3984375 V -3.4225859 h 1.875 c 0.984375,0 1.3945313,0.9257812 1.3945313,1.59375 0,0.703125 -0.515625,1.52343746 -1.5351563,1.52343746 z m 0,0"
       style="fill:#000000;fill-opacity:1;fill-rule:nonzero;stroke:none"
       aria-label="B"
       transform="matrix(1.3333333,0,0,1.3333333,505.76667,99.262667)" />
    <path
       id="path20"
       d="m 324.57095,-56.69362 c 0,7.04506 -5.711,12.75606 -12.75605,12.75606 -7.04505,0 -12.75606,-5.711 -12.75606,-12.75606 0,-7.04504 5.71101,-12.75604 12.75606,-12.75604 7.04505,0 12.75605,5.711 12.75605,12.75604 z"
       style="fill:none;stroke:#000000;stroke-width:1.19553;stroke-linecap:butt;stroke-linejoin:miter;stroke-miterlimit:10;stroke-dasharray:none;stroke-opacity:1"
       transform="matrix(1.3333333,0,0,-1.3333333,19.133333,94.724)" />
    <path
       id="path21"
       d="m 0.56395313,-3.4114844 c 0,2.0625 1.60546877,3.63281252 3.45703127,3.63281252 1.6289062,0 2.6015625,-1.38281252 2.6015625,-2.54296872 0,-0.1054688 0,-0.1757813 -0.1289063,-0.1757813 -0.1054687,0 -0.1054687,0.070312 -0.1171875,0.1640625 -0.082031,1.42968752 -1.1484375,2.23828127 -2.2265625,2.23828127 -0.609375,0 -2.5664062,-0.33984375 -2.5664062,-3.30468747 0,-2.9765625 1.9453125,-3.3164063 2.5546875,-3.3164063 1.078125,0 1.96875,0.9023438 2.1679687,2.3671875 0.023437,0.1289063 0.023437,0.1640625 0.1640625,0.1640625 0.1523438,0 0.1523438,-0.035156 0.1523438,-0.234375 v -2.3671875 c 0,-0.1640625 0,-0.234375 -0.1054688,-0.234375 -0.035156,0 -0.082031,0 -0.1640625,0.1171875 l -0.4921875,0.7382813 c -0.375,-0.3632813 -0.8789062,-0.8554688 -1.8398437,-0.8554688 -1.8632813,0 -3.45703127,1.5820313 -3.45703127,3.609375 z m 0,0"
       style="fill:#000000;fill-opacity:1;fill-rule:nonzero;stroke:none"
       aria-label="C"
       transform="matrix(1.3333333,0,0,1.3333333,430.084,174.85333)" />
    <path
       id="path22"
       d="m 437.95819,-56.69362 c 0,7.04506 -5.71099,12.75606 -12.75606,12.75606 -7.04504,0 -12.75604,-5.711 -12.75604,-12.75606 0,-7.04504 5.711,-12.75604 12.75604,-12.75604 7.04507,0 12.75606,5.711 12.75606,12.75604 z"
       style="fill:none;stroke:#000000;stroke-width:1.19553;stroke-linecap:butt;stroke-linejoin:miter;stroke-miterlimit:10;stroke-dasharray:none;stroke-opacity:1"
       transform="matrix(1.3333333,0,0,-1.3333333,19.133333,94.724)" />
    <path
       id="path23"
       d="m 0.35177344,-6.8099219 v 0.3164063 h 0.234375 c 0.77343746,0 0.78515626,0.1054687 0.78515626,0.46875 v 5.24999997 c 0,0.3515625 -0.011719,0.46875 -0.78515626,0.46875 h -0.234375 v 0.3046875 H 3.9963047 c 1.6757812,0 3.046875,-1.47656247 3.046875,-3.35156247 0,-1.8867188 -1.3476563,-3.4570313 -3.046875,-3.4570313 z m 2.36718746,6.50390627 c -0.46875,0 -0.4921875,-0.0703125 -0.4921875,-0.3984375 V -6.0950781 c 0,-0.328125 0.023437,-0.3984375 0.4921875,-0.3984375 h 0.9960938 c 0.6210937,0 1.3007812,0.2109375 1.8164062,0.9257812 0.421875,0.5859375 0.515625,1.4414063 0.515625,2.2148438 0,1.1132812 -0.1875,1.7109375 -0.5507812,2.1914062 -0.1992188,0.26953127 -0.7617188,0.85546877 -1.7695313,0.85546877 z m 0,0"
       style="fill:#000000;fill-opacity:1;fill-rule:nonzero;stroke:none"
       aria-label="D"
       transform="matrix(1.3333333,0,0,1.3333333,580.988,174.85333)" />
    <path
       id="path24"
       d="m 437.95819,56.69362 c 0,7.04504 -5.71099,12.75604 -12.75606,12.75604 -7.04504,0 -12.75604,-5.711 -12.75604,-12.75604 0,-7.04506 5.711,-12.75606 12.75604,-12.75606 7.04507,0 12.75606,5.711 12.75606,12.75606 z"
       style="fill:none;stroke:#000000;stroke-width:1.19553;stroke-linecap:butt;stroke-linejoin:miter;stroke-miterlimit:10;stroke-dasharray:none;stroke-opacity:1"
       transform="matrix(1.3333333,0,0,-1.3333333,19.133333,94.724)" />
    <path
       id="path25"
       d="m 1.3606016,-0.77353125 c 0,0.3515625 -0.023437,0.46875 -0.79687504,0.46875 h -0.234375 V -9.375e-5 H 6.0832578 L 6.4934141,-2.5665 H 6.2473203 C 6.0012266,-1.0313437 5.7668516,-0.30478125 4.0559141,-0.30478125 H 2.7316953 c -0.46875,0 -0.4921875,-0.0703125 -0.4921875,-0.3984375 V -3.363375 h 0.9023438 c 0.9609375,0 1.078125,0.3164063 1.078125,1.1601563 H 4.4660703 V -4.8399375 H 4.2199766 c 0,0.8554688 -0.1171875,1.1601563 -1.078125,1.1601563 H 2.2395078 v -2.390625 c 0,-0.328125 0.023437,-0.3984375 0.4921875,-0.3984375 h 1.2890625 c 1.5234375,0 1.7929688,0.5507812 1.9453125,1.9335937 H 6.2121641 L 5.9426328,-6.7735312 H 0.32935156 v 0.3046875 h 0.234375 c 0.77343754,0 0.79687504,0.1171875 0.79687504,0.46875 z m 0,0"
       style="fill:#000000;fill-opacity:1;fill-rule:nonzero;stroke:none"
       aria-label="E"
       transform="matrix(1.3333333,0,0,1.3333333,581.54133,23.672)" />
    <path
       id="path26"
       d="M 321.25748,47.25104 359.06595,9.44257"
       style="fill:none;stroke:#000000;stroke-width:1.19553;stroke-linecap:butt;stroke-linejoin:miter;stroke-miterlimit:10;stroke-dasharray:none;stroke-opacity:1"
       transform="matrix(1.3333333,0,0,-1.3333333,19.133333,94.724)" />
    <path
       id="path27"
       d="M 359.06595,-9.44257 321.25748,-47.25104"
       style="fill:none;stroke:#000000;stroke-width:1.19553;stroke-linecap:butt;stroke-linejoin:miter;stroke-miterlimit:10;stroke-dasharray:none;stroke-opacity:1"
       transform="matrix(1.3333333,0,0,-1.3333333,19.133333,94.724)" />
    <path
       id="path28"
       d="m 325.16872,-56.69362 h 86.67961"
       style="fill:none;stroke:#000000;stroke-width:1.19553;stroke-linecap:butt;stroke-linejoin:miter;stroke-miterlimit:10;stroke-dasharray:none;stroke-opacity:1"
       transform="matrix(1.3333333,0,0,-1.3333333,19.133333,94.724)" />
    <path
       id="path29"
       d="M 425.20213,-43.3398 V 43.3398"
       style="fill:none;stroke:#000000;stroke-width:1.19553;stroke-linecap:butt;stroke-linejoin:miter;stroke-miterlimit:10;stroke-dasharray:none;stroke-opacity:1"
       transform="matrix(1.3333333,0,0,-1.3333333,19.133333,94.724)" />
    <path
       id="path30"
       d="M 411.84833,56.69362 H 325.16872"
       style="fill:none;stroke:#000000;stroke-width:1.19553;stroke-linecap:butt;stroke-linejoin:miter;stroke-miterlimit:10;stroke-dasharray:none;stroke-opacity:1"
       transform="matrix(1.3333333,0,0,-1.3333333,19.133333,94.724)" />
  </g>
</svg>
