<?xml version="1.0" encoding="UTF-8" standalone="no"?>
<!-- Created with Inkscape (http://www.inkscape.org/) -->

<svg
   version="1.1"
   id="svg1"
   width="382.20267"
   height="155.43201"
   viewBox="0 0 382.20267 155.43201"
   sodipodi:docname="upload_l7qifruca3psnjqj2b7h5seg5g.pdf"
   xmlns:inkscape="http://www.inkscape.org/namespaces/inkscape"
   xmlns:sodipodi="http://sodipodi.sourceforge.net/DTD/sodipodi-0.dtd"
   xmlns="http://www.w3.org/2000/svg"
   xmlns:svg="http://www.w3.org/2000/svg">
  <defs
     id="defs1" />
  <sodipodi:namedview
     id="namedview1"
     pagecolor="#ffffff"
     bordercolor="#000000"
     borderopacity="0.25"
     inkscape:showpageshadow="2"
     inkscape:pageopacity="0.0"
     inkscape:pagecheckerboard="0"
     inkscape:deskcolor="#d1d1d1">
    <inkscape:page
       x="0"
       y="0"
       inkscape:label="1"
       id="page1"
       width="382.20267"
       height="155.43201"
       margin="0"
       bleed="0" />
  </sodipodi:namedview>
  <g
     id="g1"
     inkscape:groupmode="layer"
     inkscape:label="1">
    <path
       id="path1"
       d="M 14.17339,0 C 14.17339,7.82784 7.82784,14.17339 0,14.17339 -7.82784,14.17339 -14.17339,7.82784 -14.17339,0 c 0,-7.82784 6.34555,-14.17339 14.17339,-14.17339 7.82784,0 14.17339,6.34555 14.17339,14.17339 z"
       style="fill:none;stroke:#000000;stroke-width:1.19553;stroke-linecap:butt;stroke-linejoin:miter;stroke-miterlimit:10;stroke-dasharray:none;stroke-opacity:1"
       transform="matrix(1.3333333,0,0,-1.3333333,21.022667,58.818667)" />
    <path
       id="path2"
       d="m 2.9300313,-6.3757578 c 0,-0.234375 0,-0.2578125 -0.234375,-0.2578125 -0.609375,0.6328125 -1.4882813,0.6328125 -1.80468755,0.6328125 v 0.3164062 c 0.19921875,0 0.78515625,0 1.30078125,-0.2578125 v 5.15625004 c 0,0.3515625 -0.035156,0.48046875 -0.9257812,0.48046875 H 0.9495625 V -7.578125e-4 C 1.301125,-0.03591406 2.1565938,-0.03591406 2.5550313,-0.03591406 c 0.3984375,0 1.265625,0 1.6171875,0.0351562475 V -0.30544531 H 3.8558125 c -0.9023437,0 -0.9257812,-0.1171875 -0.9257812,-0.48046875 z m 0,0"
       style="fill:#000000;fill-opacity:1;fill-rule:nonzero;stroke:none"
       aria-label="1"
       transform="matrix(1.3333333,0,0,1.3333333,17.702667,63.098667)" />
    <path
       id="path3"
       d="m 99.21382,28.3468 c 0,7.82785 -6.34555,14.1734 -14.1734,14.1734 -7.82785,0 -14.1734,-6.34555 -14.1734,-14.1734 0,-7.82785 6.34555,-14.1734 14.1734,-14.1734 7.82785,0 14.1734,6.34555 14.1734,14.1734 z"
       style="fill:none;stroke:#000000;stroke-width:1.19553;stroke-linecap:butt;stroke-linejoin:miter;stroke-miterlimit:10;stroke-dasharray:none;stroke-opacity:1"
       transform="matrix(1.3333333,0,0,-1.3333333,21.022667,58.818667)" />
    <path
       id="path4"
       d="M 1.2670078,-0.76120312 2.3216953,-1.7924531 c 1.5585938,-1.3710938 2.15625,-1.9101563 2.15625,-2.90625 0,-1.1367188 -0.9023437,-1.9335938 -2.1210937,-1.9335938 -1.125,0 -1.85156254,0.9140625 -1.85156254,1.8046875 0,0.5507813 0.4921875,0.5507813 0.52734374,0.5507813 0.1640625,0 0.515625,-0.1171875 0.515625,-0.5273438 0,-0.2578125 -0.1875,-0.515625 -0.5273437,-0.515625 -0.0820313,0 -0.10546879,0 -0.12890629,0.011719 0.22265629,-0.6445313 0.76171879,-1.0195313 1.33593749,-1.0195313 0.9140625,0 1.3359375,0.8085938 1.3359375,1.6289063 0,0.796875 -0.4921875,1.5820312 -1.0429687,2.203125 L 0.61075781,-0.36276562 C 0.50528906,-0.25729687 0.50528906,-0.23385937 0.50528906,5.15625e-4 H 4.1966953 L 4.4779453,-1.7338594 H 4.2201328 c -0.046875,0.3046875 -0.1171875,0.73828128 -0.2109375,0.89062503 -0.070312,0.0820313 -0.7265625,0.0820313 -0.9492187,0.0820313 z m 0,0"
       style="fill:#000000;fill-opacity:1;fill-rule:nonzero;stroke:none"
       aria-label="2"
       transform="matrix(1.3333333,0,0,1.3333333,131.088,25.304)" />
    <path
       id="path5"
       d="m 66.61516,-17.00824 c 0,7.82785 -6.34556,14.1734 -14.1734,14.1734 -7.82786,0 -14.1734,-6.34555 -14.1734,-14.1734 0,-7.82785 6.34554,-14.1734 14.1734,-14.1734 7.82784,0 14.1734,6.34555 14.1734,14.1734 z"
       style="fill:none;stroke:#000000;stroke-width:1.19553;stroke-linecap:butt;stroke-linejoin:miter;stroke-miterlimit:10;stroke-dasharray:none;stroke-opacity:1"
       transform="matrix(1.3333333,0,0,-1.3333333,21.022667,58.818667)" />
    <path
       id="path6"
       d="m 2.8952813,-3.5028984 c 0.8085937,-0.2695313 1.3945312,-0.9726563 1.3945312,-1.7578125 0,-0.8203125 -0.8789062,-1.3710938 -1.8398437,-1.3710938 -1.0078125,0 -1.75781255,0.5976563 -1.75781255,1.3476563 0,0.3398437 0.2109375,0.5273437 0.50390625,0.5273437 0.3046875,0 0.5039063,-0.2226562 0.5039063,-0.515625 0,-0.4921875 -0.46875,-0.4921875 -0.609375,-0.4921875 0.3046875,-0.4921875 0.9609375,-0.6210937 1.3242187,-0.6210937 0.4101563,0 0.9492188,0.2226562 0.9492188,1.1132812 0,0.1289063 -0.011719,0.703125 -0.2695313,1.1367188 -0.3046875,0.4804687 -0.6445312,0.515625 -0.890625,0.515625 -0.082031,0.011719 -0.3164062,0.035156 -0.3867187,0.035156 -0.082031,0.011719 -0.1523438,0.023437 -0.1523438,0.1171875 0,0.1171875 0.070312,0.1171875 0.234375,0.1171875 H 2.3445 c 0.8085938,0 1.1835938,0.6679688 1.1835938,1.6523438 0,1.34765621 -0.6914063,1.64062496 -1.125,1.64062496 -0.4335938,0 -1.171875,-0.17578125 -1.52343755,-0.76171875 0.35156255,0.0585938 0.65625005,-0.1640625 0.65625005,-0.53906251 0,-0.3632812 -0.2695313,-0.5625 -0.56250005,-0.5625 -0.234375,0 -0.55078125,0.140625 -0.55078125,0.5742188 0,0.91406246 0.9257813,1.57031246 2.0039063,1.57031246 1.21875,0 2.1210937,-0.9140625 2.1210937,-1.92187496 0,-0.8203125 -0.6210937,-1.59375 -1.6523437,-1.8046873 z m 0,0"
       style="fill:#000000;fill-opacity:1;fill-rule:nonzero;stroke:none"
       aria-label="3"
       transform="matrix(1.3333333,0,0,1.3333333,87.624,85.776)" />
    <path
       id="path7"
       d="m 82.20555,-56.69362 c 0,7.82785 -6.34555,14.1734 -14.17338,14.1734 -7.82785,0 -14.17341,-6.34555 -14.17341,-14.1734 0,-7.82783 6.34556,-14.17338 14.17341,-14.17338 7.82783,0 14.17338,6.34555 14.17338,14.17338 z"
       style="fill:none;stroke:#000000;stroke-width:1.19553;stroke-linecap:butt;stroke-linejoin:miter;stroke-miterlimit:10;stroke-dasharray:none;stroke-opacity:1"
       transform="matrix(1.3333333,0,0,-1.3333333,21.022667,58.818667)" />
    <path
       id="path8"
       d="m 2.9293047,-1.642 v 0.8671875 c 0,0.3515625 -0.023437,0.46875 -0.7617188,0.46875 H 1.9566484 v 0.3046875 c 0.4101563,-0.03515625 0.9375,-0.03515625 1.3476563,-0.03515625 0.421875,0 0.9492187,0 1.359375,0.03515625 V -0.3060625 H 4.4527422 c -0.7382813,0 -0.7617188,-0.1171875 -0.7617188,-0.46875 V -1.642 H 4.6871172 V -1.9584062 H 3.6910234 v -4.5234375 c 0,-0.1992188 0,-0.2578125 -0.1523437,-0.2578125 -0.09375,0 -0.1171875,0 -0.1992188,0.1171875 L 0.28086719,-1.9584062 V -1.642 Z m 0.058594,-0.3164062 H 0.56211719 L 2.9878984,-5.67325 Z m 0,0"
       style="fill:#000000;fill-opacity:1;fill-rule:nonzero;stroke:none"
       aria-label="4"
       transform="matrix(1.3333333,0,0,1.3333333,108.41067,138.68933)" />
    <path
       id="path9"
       d="M 14.01248,4.67075 71.02794,23.67606"
       style="fill:none;stroke:#000000;stroke-width:1.19553;stroke-linecap:butt;stroke-linejoin:miter;stroke-miterlimit:10;stroke-dasharray:none;stroke-opacity:1"
       transform="matrix(1.3333333,0,0,-1.3333333,21.022667,58.818667)" />
    <path
       id="path10"
       d="m 14.05034,-4.55692 24.34083,-7.89462"
       style="fill:none;stroke:#000000;stroke-width:1.19553;stroke-linecap:butt;stroke-linejoin:miter;stroke-miterlimit:10;stroke-dasharray:none;stroke-opacity:1"
       transform="matrix(1.3333333,0,0,-1.3333333,21.022667,58.818667)" />
    <path
       id="path11"
       d="M 76.41994,16.3529 61.06201,-5.01434"
       style="fill:none;stroke:#000000;stroke-width:1.19553;stroke-linecap:butt;stroke-linejoin:miter;stroke-miterlimit:10;stroke-dasharray:none;stroke-opacity:1"
       transform="matrix(1.3333333,0,0,-1.3333333,21.022667,58.818667)" />
    <path
       id="path12"
       d="M 82.14372,13.86302 70.92886,-42.20984"
       style="fill:none;stroke:#000000;stroke-width:1.19553;stroke-linecap:butt;stroke-linejoin:miter;stroke-miterlimit:10;stroke-dasharray:none;stroke-opacity:1"
       transform="matrix(1.3333333,0,0,-1.3333333,21.022667,58.818667)" />
    <path
       id="path13"
       d="M 11.3468,-9.45578 56.68513,-47.23782"
       style="fill:none;stroke:#000000;stroke-width:1.19553;stroke-linecap:butt;stroke-linejoin:miter;stroke-miterlimit:10;stroke-dasharray:none;stroke-opacity:1"
       transform="matrix(1.3333333,0,0,-1.3333333,21.022667,58.818667)" />
    <path
       id="path14"
       d="m 57.84232,-30.75589 4.78927,-12.19008"
       style="fill:none;stroke:#000000;stroke-width:1.19553;stroke-linecap:butt;stroke-linejoin:miter;stroke-miterlimit:10;stroke-dasharray:none;stroke-opacity:1"
       transform="matrix(1.3333333,0,0,-1.3333333,21.022667,58.818667)" />
    <path
       id="path15"
       d="M 127.56062,42.5202 V -70.867"
       style="fill:none;stroke:#000000;stroke-width:0.3985;stroke-linecap:butt;stroke-linejoin:miter;stroke-miterlimit:10;stroke-dasharray:none;stroke-opacity:1"
       transform="matrix(1.3333333,0,0,-1.3333333,21.022667,58.818667)" />
    <path
       id="path16"
       d="m 184.25424,28.3468 c 0,7.82785 -6.34554,14.1734 -14.17338,14.1734 -7.82786,0 -14.1734,-6.34555 -14.1734,-14.1734 0,-7.82785 6.34554,-14.1734 14.1734,-14.1734 7.82784,0 14.17338,6.34555 14.17338,14.1734 z"
       style="fill:none;stroke:#000000;stroke-width:1.19553;stroke-linecap:butt;stroke-linejoin:miter;stroke-miterlimit:10;stroke-dasharray:none;stroke-opacity:1"
       transform="matrix(1.3333333,0,0,-1.3333333,21.022667,58.818667)" />
    <path
       id="path17"
       d="m 2.9291797,-6.3744844 c 0,-0.234375 0,-0.2578125 -0.234375,-0.2578125 -0.609375,0.6328125 -1.4882813,0.6328125 -1.80468751,0.6328125 v 0.3164063 c 0.19921871,0 0.78515621,0 1.30078121,-0.2578125 v 5.15624998 c 0,0.3515625 -0.035156,0.48046875 -0.9257812,0.48046875 H 0.94871094 V 5.15625e-4 C 1.3002734,-0.03464062 2.1557422,-0.03464062 2.5541797,-0.03464062 c 0.3984375,0 1.265625,0 1.6171875,0.035156245 V -0.30417187 H 3.8549609 c -0.9023437,0 -0.9257812,-0.1171875 -0.9257812,-0.48046875 z m 0,0"
       style="fill:#000000;fill-opacity:1;fill-rule:nonzero;stroke:none"
       aria-label="1"
       transform="matrix(1.3333333,0,0,1.3333333,244.47333,25.304)" />
    <path
       id="path18"
       d="m 269.29468,28.3468 c 0,7.82785 -6.34555,14.1734 -14.1734,14.1734 -7.82785,0 -14.17339,-6.34555 -14.17339,-14.1734 0,-7.82785 6.34554,-14.1734 14.17339,-14.1734 7.82785,0 14.1734,6.34555 14.1734,14.1734 z"
       style="fill:none;stroke:#000000;stroke-width:1.19553;stroke-linecap:butt;stroke-linejoin:miter;stroke-miterlimit:10;stroke-dasharray:none;stroke-opacity:1"
       transform="matrix(1.3333333,0,0,-1.3333333,21.022667,58.818667)" />
    <path
       id="path19"
       d="M 1.2651563,-0.76120312 2.3198438,-1.7924531 c 1.5585937,-1.3710938 2.15625,-1.9101563 2.15625,-2.90625 0,-1.1367188 -0.9023438,-1.9335938 -2.1210938,-1.9335938 -1.125,0 -1.8515625,0.9140625 -1.8515625,1.8046875 0,0.5507813 0.4921875,0.5507813 0.5273438,0.5507813 0.1640625,0 0.515625,-0.1171875 0.515625,-0.5273438 0,-0.2578125 -0.1875,-0.515625 -0.5273438,-0.515625 -0.0820313,0 -0.10546875,0 -0.12890625,0.011719 0.22265625,-0.6445313 0.76171875,-1.0195313 1.33593755,-1.0195313 0.9140625,0 1.3359375,0.8085938 1.3359375,1.6289063 0,0.796875 -0.4921875,1.5820312 -1.0429688,2.203125 L 0.60890625,-0.36276562 C 0.5034375,-0.25729687 0.5034375,-0.23385937 0.5034375,5.15625e-4 H 4.1948438 L 4.4760938,-1.7338594 H 4.2182813 c -0.046875,0.3046875 -0.1171875,0.73828128 -0.2109375,0.89062503 -0.070312,0.0820313 -0.7265625,0.0820313 -0.9492188,0.0820313 z m 0,0"
       style="fill:#000000;fill-opacity:1;fill-rule:nonzero;stroke:none"
       aria-label="2"
       transform="matrix(1.3333333,0,0,1.3333333,357.86,25.304)" />
    <path
       id="path20"
       d="m 184.25424,-56.69362 c 0,7.82785 -6.34554,14.1734 -14.17338,14.1734 -7.82786,0 -14.1734,-6.34555 -14.1734,-14.1734 0,-7.82783 6.34554,-14.17338 14.1734,-14.17338 7.82784,0 14.17338,6.34555 14.17338,14.17338 z"
       style="fill:none;stroke:#000000;stroke-width:1.19553;stroke-linecap:butt;stroke-linejoin:miter;stroke-miterlimit:10;stroke-dasharray:none;stroke-opacity:1"
       transform="matrix(1.3333333,0,0,-1.3333333,21.022667,58.818667)" />
    <path
       id="path21"
       d="m 2.8940234,-3.5052812 c 0.8085938,-0.2695313 1.3945313,-0.9726563 1.3945313,-1.7578125 0,-0.8203125 -0.8789063,-1.3710938 -1.8398438,-1.3710938 -1.0078125,0 -1.75781246,0.5976563 -1.75781246,1.3476563 0,0.3398437 0.2109375,0.5273437 0.50390626,0.5273437 0.3046875,0 0.5039062,-0.2226562 0.5039062,-0.515625 0,-0.4921875 -0.46875,-0.4921875 -0.609375,-0.4921875 0.3046875,-0.4921875 0.9609375,-0.6210937 1.3242188,-0.6210937 0.4101562,0 0.9492187,0.2226562 0.9492187,1.1132812 0,0.1289063 -0.011719,0.703125 -0.2695312,1.1367188 -0.3046875,0.4804687 -0.6445313,0.515625 -0.890625,0.515625 -0.082031,0.011719 -0.3164063,0.035156 -0.3867188,0.035156 -0.082031,0.011719 -0.1523437,0.023437 -0.1523437,0.1171875 0,0.1171875 0.070312,0.1171875 0.234375,0.1171875 h 0.4453125 c 0.8085937,0 1.1835937,0.6679688 1.1835937,1.6523438 0,1.3476562 -0.6914062,1.64062495 -1.125,1.64062495 -0.4335937,0 -1.171875,-0.17578125 -1.52343746,-0.76171875 0.35156246,0.058594 0.65624996,-0.1640623 0.65624996,-0.5390623 0,-0.3632812 -0.2695312,-0.5625 -0.56249996,-0.5625 -0.234375,0 -0.55078125,0.140625 -0.55078125,0.5742188 0,0.91406245 0.92578121,1.57031245 2.00390621,1.57031245 1.21875,0 2.1210938,-0.9140625 2.1210938,-1.92187495 0,-0.8203125 -0.6210938,-1.59375 -1.6523438,-1.8046875 z m 0,0"
       style="fill:#000000;fill-opacity:1;fill-rule:nonzero;stroke:none"
       aria-label="3"
       transform="matrix(1.3333333,0,0,1.3333333,244.47333,138.68933)" />
    <path
       id="path22"
       d="m 269.29468,-56.69362 c 0,7.82785 -6.34555,14.1734 -14.1734,14.1734 -7.82785,0 -14.17339,-6.34555 -14.17339,-14.1734 0,-7.82783 6.34554,-14.17338 14.17339,-14.17338 7.82785,0 14.1734,6.34555 14.1734,14.17338 z"
       style="fill:none;stroke:#000000;stroke-width:1.19553;stroke-linecap:butt;stroke-linejoin:miter;stroke-miterlimit:10;stroke-dasharray:none;stroke-opacity:1"
       transform="matrix(1.3333333,0,0,-1.3333333,21.022667,58.818667)" />
    <path
       id="path23"
       d="m 2.9292188,-1.642 v 0.8671875 c 0,0.3515625 -0.023437,0.46875 -0.7617188,0.46875 H 1.9565625 v 0.3046875 c 0.4101563,-0.03515625 0.9375,-0.03515625 1.3476563,-0.03515625 0.421875,0 0.9492187,0 1.359375,0.03515625 V -0.3060625 H 4.4526563 c -0.7382813,0 -0.7617188,-0.1171875 -0.7617188,-0.46875 V -1.642 H 4.6870313 V -1.9584062 H 3.6909375 v -4.5234375 c 0,-0.1992188 0,-0.2578125 -0.1523437,-0.2578125 -0.09375,0 -0.1171875,0 -0.1992188,0.1171875 L 0.28078125,-1.9584062 V -1.642 Z m 0.058594,-0.3164062 H 0.56203125 L 2.9878125,-5.67325 Z m 0,0"
       style="fill:#000000;fill-opacity:1;fill-rule:nonzero;stroke:none"
       aria-label="4"
       transform="matrix(1.3333333,0,0,1.3333333,357.86,138.68933)" />
    <path
       id="path24"
       d="m 184.852,28.3468 h 55.49813"
       style="fill:none;stroke:#000000;stroke-width:1.19553;stroke-linecap:butt;stroke-linejoin:miter;stroke-miterlimit:10;stroke-dasharray:none;stroke-opacity:1"
       transform="matrix(1.3333333,0,0,-1.3333333,21.022667,58.818667)" />
    <path
       id="path25"
       d="m 170.08086,13.57565 v -55.4981"
       style="fill:none;stroke:#000000;stroke-width:1.19553;stroke-linecap:butt;stroke-linejoin:miter;stroke-miterlimit:10;stroke-dasharray:none;stroke-opacity:1"
       transform="matrix(1.3333333,0,0,-1.3333333,21.022667,58.818667)" />
    <path
       id="path26"
       d="M 244.67648,17.90201 180.52565,-46.24883"
       style="fill:none;stroke:#000000;stroke-width:1.19553;stroke-linecap:butt;stroke-linejoin:miter;stroke-miterlimit:10;stroke-dasharray:none;stroke-opacity:1"
       transform="matrix(1.3333333,0,0,-1.3333333,21.022667,58.818667)" />
    <path
       id="path27"
       d="m 255.12128,13.57565 v -55.4981"
       style="fill:none;stroke:#000000;stroke-width:1.19553;stroke-linecap:butt;stroke-linejoin:miter;stroke-miterlimit:10;stroke-dasharray:none;stroke-opacity:1"
       transform="matrix(1.3333333,0,0,-1.3333333,21.022667,58.818667)" />
    <path
       id="path28"
       d="m 180.52565,17.90201 64.15083,-64.15084"
       style="fill:none;stroke:#000000;stroke-width:1.19553;stroke-linecap:butt;stroke-linejoin:miter;stroke-miterlimit:10;stroke-dasharray:none;stroke-opacity:1"
       transform="matrix(1.3333333,0,0,-1.3333333,21.022667,58.818667)" />
    <path
       id="path29"
       d="m 184.852,-56.69362 h 55.49813"
       style="fill:none;stroke:#000000;stroke-width:1.19553;stroke-linecap:butt;stroke-linejoin:miter;stroke-miterlimit:10;stroke-dasharray:none;stroke-opacity:1"
       transform="matrix(1.3333333,0,0,-1.3333333,21.022667,58.818667)" />
  </g>
</svg>
