<?xml version="1.0" encoding="UTF-8" standalone="no"?>
<!-- Created with Inkscape (http://www.inkscape.org/) -->

<svg
   version="1.1"
   id="svg1"
   width="193.22667"
   height="67.970665"
   viewBox="0 0 193.22667 67.970665"
   sodipodi:docname="upload_wap4qumoqptlssrtqbynjwbcym.pdf"
   xmlns:inkscape="http://www.inkscape.org/namespaces/inkscape"
   xmlns:sodipodi="http://sodipodi.sourceforge.net/DTD/sodipodi-0.dtd"
   xmlns="http://www.w3.org/2000/svg"
   xmlns:svg="http://www.w3.org/2000/svg">
  <defs
     id="defs1" />
  <sodipodi:namedview
     id="namedview1"
     pagecolor="#ffffff"
     bordercolor="#000000"
     borderopacity="0.25"
     inkscape:showpageshadow="2"
     inkscape:pageopacity="0.0"
     inkscape:pagecheckerboard="0"
     inkscape:deskcolor="#d1d1d1">
    <inkscape:page
       x="0"
       y="0"
       inkscape:label="1"
       id="page1"
       width="193.22667"
       height="67.970665"
       margin="0"
       bleed="0" />
  </sodipodi:namedview>
  <g
     id="g1"
     inkscape:groupmode="layer"
     inkscape:label="1">
    <path
       id="path1"
       d="M 14.17339,0 C 14.17339,7.82784 7.82784,14.17339 0,14.17339 -7.82784,14.17339 -14.17339,7.82784 -14.17339,0 c 0,-7.82784 6.34555,-14.17339 14.17339,-14.17339 7.82784,0 14.17339,6.34555 14.17339,14.17339 z"
       style="fill:none;stroke:#000000;stroke-width:1.19553;stroke-linecap:butt;stroke-linejoin:miter;stroke-miterlimit:10;stroke-dasharray:none;stroke-opacity:1"
       transform="matrix(1.3333333,0,0,-1.3333333,21.022667,46.948)" />
    <path
       id="path2"
       d="m 2.9300313,-6.3760781 c 0,-0.234375 0,-0.2578125 -0.234375,-0.2578125 -0.609375,0.6328125 -1.4882813,0.6328125 -1.80468755,0.6328125 v 0.3164062 c 0.19921875,0 0.78515625,0 1.30078125,-0.2578125 v 5.15625003 c 0,0.3515625 -0.035156,0.48046875 -0.9257812,0.48046875 H 0.9495625 v 0.3046875 c 0.3515625,-0.03515625 1.2070313,-0.03515625 1.6054688,-0.03515625 0.3984375,0 1.265625,0 1.6171875,0.03515625 v -0.3046875 H 3.8558125 c -0.9023437,0 -0.9257812,-0.1171875 -0.9257812,-0.48046875 z m 0,0"
       style="fill:#000000;fill-opacity:1;fill-rule:nonzero;stroke:none"
       aria-label="1"
       transform="matrix(1.3333333,0,0,1.3333333,17.702667,51.228)" />
    <path
       id="path3"
       d="m 6.70578,13.16095 c 4.19748,3.52217 4.74493,9.78003 1.22278,13.97751 -3.52217,4.19748 -9.78002,4.74493 -13.97749,1.22276 -2.71494,-2.27814 -4.00879,-5.83259 -3.39337,-9.32292 0.40498,-2.29686 1.60677,-4.37819 3.39337,-5.87735"
       style="fill:none;stroke:#000000;stroke-width:1.19553;stroke-linecap:butt;stroke-linejoin:miter;stroke-miterlimit:10;stroke-dasharray:none;stroke-opacity:1"
       transform="matrix(1.3333333,0,0,-1.3333333,21.022667,46.948)" />
    <path
       id="path4"
       d="M 56.69362,34.01608 V -14.17339"
       style="fill:none;stroke:#000000;stroke-width:0.3985;stroke-linecap:butt;stroke-linejoin:miter;stroke-miterlimit:10;stroke-dasharray:none;stroke-opacity:1"
       transform="matrix(1.3333333,0,0,-1.3333333,21.022667,46.948)" />
    <path
       id="path5"
       d="m 127.56062,0 c 0,7.82784 -6.34555,14.17339 -14.17338,14.17339 -7.82785,0 -14.1734,-6.34555 -14.1734,-14.17339 0,-7.82784 6.34555,-14.17339 14.1734,-14.17339 7.82783,0 14.17338,6.34555 14.17338,14.17339 z"
       style="fill:none;stroke:#000000;stroke-width:1.19553;stroke-linecap:butt;stroke-linejoin:miter;stroke-miterlimit:10;stroke-dasharray:none;stroke-opacity:1"
       transform="matrix(1.3333333,0,0,-1.3333333,21.022667,46.948)" />
    <path
       id="path6"
       d="M 1.2657344,-0.76279687 2.3204219,-1.7940469 c 1.5585937,-1.3710937 2.15625,-1.9101562 2.15625,-2.90625 0,-1.1367187 -0.9023438,-1.9335937 -2.1210938,-1.9335937 -1.125,0 -1.85156247,0.9140625 -1.85156247,1.8046875 0,0.5507812 0.4921875,0.5507812 0.52734377,0.5507812 0.1640625,0 0.515625,-0.1171875 0.515625,-0.5273437 0,-0.2578125 -0.1875,-0.515625 -0.5273438,-0.515625 -0.0820312,0 -0.10546872,0 -0.12890622,0.011719 0.22265622,-0.6445312 0.76171872,-1.0195312 1.33593752,-1.0195312 0.9140625,0 1.3359375,0.8085937 1.3359375,1.6289062 0,0.796875 -0.4921875,1.5820313 -1.0429688,2.203125 L 0.60948438,-0.36435937 C 0.50401563,-0.25889062 0.50401563,-0.23545312 0.50401563,-0.00107812 H 4.1954219 l 0.28125,-1.73437498 H 4.2188594 c -0.046875,0.3046875 -0.1171875,0.73828123 -0.2109375,0.89062498 -0.070313,0.0820313 -0.7265625,0.0820313 -0.9492188,0.0820313 z m 0,0"
       style="fill:#000000;fill-opacity:1;fill-rule:nonzero;stroke:none"
       aria-label="2"
       transform="matrix(1.3333333,0,0,1.3333333,168.88267,51.228)" />
    <path
       id="path7"
       d="m 120.09302,13.16095 c 4.19748,3.52217 4.74493,9.78003 1.22278,13.97751 -3.52218,4.19748 -9.78003,4.74493 -13.97751,1.22276 -2.71494,-2.27814 -4.00879,-5.83259 -3.39337,-9.32292 0.0677,-0.38388 0.15759,-0.76176 0.26878,-1.1319"
       style="fill:none;stroke:#000000;stroke-width:1.19553;stroke-linecap:butt;stroke-linejoin:miter;stroke-miterlimit:10;stroke-dasharray:none;stroke-opacity:1"
       transform="matrix(1.3333333,0,0,-1.3333333,21.022667,46.948)" />
    <path
       id="path8"
       d="M 4.86136,0 0.59775,2.60019 V 0 -2.60019 Z"
       style="fill:#000000;fill-opacity:1;fill-rule:nonzero;stroke:#000000;stroke-width:1.19553;stroke-linecap:butt;stroke-linejoin:miter;stroke-miterlimit:10;stroke-dasharray:none;stroke-opacity:1"
       transform="matrix(0.71625333,1.1245333,1.1245333,-0.71625333,159.80219,22.588933)" />
  </g>
</svg>
