<?xml version="1.0" encoding="UTF-8" standalone="no"?>
<!-- Created with Inkscape (http://www.inkscape.org/) -->

<svg
   version="1.1"
   id="svg1"
   width="216.84"
   height="216.84"
   viewBox="0 0 216.84 216.84"
   sodipodi:docname="upload_c4cu7z33qieemgobcyf53jv6a2.pdf"
   xmlns:inkscape="http://www.inkscape.org/namespaces/inkscape"
   xmlns:sodipodi="http://sodipodi.sourceforge.net/DTD/sodipodi-0.dtd"
   xmlns="http://www.w3.org/2000/svg"
   xmlns:svg="http://www.w3.org/2000/svg">
  <defs
     id="defs1" />
  <sodipodi:namedview
     id="namedview1"
     pagecolor="#ffffff"
     bordercolor="#000000"
     borderopacity="0.25"
     inkscape:showpageshadow="2"
     inkscape:pageopacity="0.0"
     inkscape:pagecheckerboard="0"
     inkscape:deskcolor="#d1d1d1">
    <inkscape:page
       x="0"
       y="0"
       inkscape:label="1"
       id="page1"
       width="216.84"
       height="216.84"
       margin="0"
       bleed="0" />
  </sodipodi:namedview>
  <g
     id="g1"
     inkscape:groupmode="layer"
     inkscape:label="1">
    <path
       id="path1"
       d="M 14.17339,0 C 14.17339,7.82784 7.82784,14.17339 0,14.17339 -7.82784,14.17339 -14.17339,7.82784 -14.17339,0 c 0,-7.82784 6.34555,-14.17339 14.17339,-14.17339 7.82784,0 14.17339,6.34555 14.17339,14.17339 z"
       style="fill:none;stroke:#000000;stroke-width:1.19553;stroke-linecap:butt;stroke-linejoin:miter;stroke-miterlimit:10;stroke-dasharray:none;stroke-opacity:1"
       transform="matrix(1.3333333,0,0,-1.3333333,44.636,96.613333)" />
    <path
       id="path2"
       d="m 2.9309922,-6.3741016 c 0,-0.234375 0,-0.2578125 -0.234375,-0.2578125 -0.609375,0.6328125 -1.4882813,0.6328125 -1.80468751,0.6328125 v 0.3164063 c 0.19921871,0 0.78515621,0 1.30078121,-0.2578125 v 5.15624999 c 0,0.3515625 -0.035156,0.48046875 -0.9257812,0.48046875 H 0.95052344 V 8.984375e-4 C 1.3020859,-0.03425781 2.1575547,-0.03425781 2.5559922,-0.03425781 c 0.3984375,0 1.265625,0 1.6171875,0.0351562475 V -0.30378906 H 3.8567734 c -0.9023437,0 -0.9257812,-0.1171875 -0.9257812,-0.48046875 z m 0,0"
       style="fill:#000000;fill-opacity:1;fill-rule:nonzero;stroke:none"
       aria-label="1"
       transform="matrix(1.3333333,0,0,1.3333333,41.314667,100.89333)" />
    <path
       id="path3"
       d="m 70.867,56.69362 c 0,7.82783 -6.34555,14.17338 -14.17338,14.17338 -7.82785,0 -14.1734,-6.34555 -14.1734,-14.17338 0,-7.82785 6.34555,-14.1734 14.1734,-14.1734 7.82783,0 14.17338,6.34555 14.17338,14.1734 z"
       style="fill:none;stroke:#000000;stroke-width:1.19553;stroke-linecap:butt;stroke-linejoin:miter;stroke-miterlimit:10;stroke-dasharray:none;stroke-opacity:1"
       transform="matrix(1.3333333,0,0,-1.3333333,44.636,96.613333)" />
    <path
       id="path4"
       d="M 1.2663125,-0.76313281 2.321,-1.7943828 c 1.5585937,-1.3710938 2.15625,-1.9101563 2.15625,-2.90625 0,-1.1367188 -0.9023438,-1.9335938 -2.1210938,-1.9335938 -1.125,0 -1.85156245,0.9140625 -1.85156245,1.8046875 0,0.5507813 0.4921875,0.5507813 0.52734375,0.5507813 0.1640625,0 0.515625,-0.1171875 0.515625,-0.5273438 0,-0.2578125 -0.1875,-0.515625 -0.5273438,-0.515625 -0.0820312,0 -0.1054687,0 -0.1289062,0.011719 0.2226562,-0.6445313 0.7617187,-1.0195313 1.3359375,-1.0195313 0.9140625,0 1.3359375,0.8085938 1.3359375,1.6289063 0,0.796875 -0.4921875,1.5820312 -1.0429688,2.203125 L 0.6100625,-0.36469531 C 0.50459375,-0.25922656 0.50459375,-0.23578906 0.50459375,-0.00141406 H 4.196 L 4.47725,-1.7357891 H 4.2194375 C 4.1725625,-1.4311016 4.10225,-0.99750781 4.0085,-0.84516406 c -0.070312,0.0820313 -0.7265625,0.0820313 -0.9492188,0.0820313 z m 0,0"
       style="fill:#000000;fill-opacity:1;fill-rule:nonzero;stroke:none"
       aria-label="2"
       transform="matrix(1.3333333,0,0,1.3333333,116.90533,25.302667)" />
    <path
       id="path5"
       d="m 70.867,-56.69362 c 0,7.82785 -6.34555,14.1734 -14.17338,14.1734 -7.82785,0 -14.1734,-6.34555 -14.1734,-14.1734 0,-7.82783 6.34555,-14.17338 14.1734,-14.17338 7.82783,0 14.17338,6.34555 14.17338,14.17338 z"
       style="fill:none;stroke:#000000;stroke-width:1.19553;stroke-linecap:butt;stroke-linejoin:miter;stroke-miterlimit:10;stroke-dasharray:none;stroke-opacity:1"
       transform="matrix(1.3333333,0,0,-1.3333333,44.636,96.613333)" />
    <path
       id="path6"
       d="M 2.8952187,-3.503625 C 3.7038125,-3.7731562 4.28975,-4.4762812 4.28975,-5.2614375 c 0,-0.8203125 -0.8789063,-1.3710937 -1.8398438,-1.3710937 -1.0078125,0 -1.75781245,0.5976562 -1.75781245,1.3476562 0,0.3398438 0.2109375,0.5273438 0.50390625,0.5273438 0.3046875,0 0.5039062,-0.2226563 0.5039062,-0.515625 0,-0.4921875 -0.46875,-0.4921875 -0.609375,-0.4921875 0.3046875,-0.4921875 0.9609375,-0.6210938 1.3242188,-0.6210938 0.4101562,0 0.9492187,0.2226563 0.9492187,1.1132813 0,0.1289062 -0.011719,0.703125 -0.2695312,1.1367187 -0.3046875,0.4804688 -0.6445313,0.515625 -0.890625,0.515625 -0.082031,0.011719 -0.3164063,0.035156 -0.3867188,0.035156 -0.082031,0.011719 -0.1523437,0.023437 -0.1523437,0.1171875 0,0.1171875 0.070312,0.1171875 0.234375,0.1171875 h 0.4453125 c 0.8085937,0 1.1835937,0.6679687 1.1835937,1.6523437 0,1.34765625 -0.6914062,1.640625 -1.125,1.640625 -0.4335937,0 -1.171875,-0.17578125 -1.52343745,-0.76171875 0.35156245,0.0585938 0.65624995,-0.1640625 0.65624995,-0.53906245 0,-0.3632813 -0.2695312,-0.5625 -0.56249995,-0.5625 -0.234375,0 -0.55078125,0.140625 -0.55078125,0.5742187 0,0.9140625 0.9257812,1.5703125 2.0039062,1.5703125 1.21875,0 2.1210938,-0.9140625 2.1210938,-1.921875 0,-0.8203125 -0.6210938,-1.59375 -1.6523438,-1.8046872 z m 0,0"
       style="fill:#000000;fill-opacity:1;fill-rule:nonzero;stroke:none"
       aria-label="3"
       transform="matrix(1.3333333,0,0,1.3333333,116.90533,176.484)" />
    <path
       id="path7"
       d="m 127.56062,0 c 0,7.82784 -6.34555,14.17339 -14.17338,14.17339 -7.82785,0 -14.1734,-6.34555 -14.1734,-14.17339 0,-7.82784 6.34555,-14.17339 14.1734,-14.17339 7.82783,0 14.17338,6.34555 14.17338,14.17339 z"
       style="fill:none;stroke:#000000;stroke-width:1.19553;stroke-linecap:butt;stroke-linejoin:miter;stroke-miterlimit:10;stroke-dasharray:none;stroke-opacity:1"
       transform="matrix(1.3333333,0,0,-1.3333333,44.636,96.613333)" />
    <path
       id="path8"
       d="m 2.9297578,-1.6397266 v 0.86718754 c 0,0.3515625 -0.023437,0.46875 -0.7617187,0.46875 H 1.9571016 V 8.984375e-4 C 2.3672578,-0.03425781 2.8946016,-0.03425781 3.3047578,-0.03425781 c 0.421875,0 0.9492188,0 1.359375,0.0351562475 V -0.30378906 H 4.4531953 c -0.7382812,0 -0.7617187,-0.1171875 -0.7617187,-0.46875 V -1.6397266 H 4.6875703 V -1.9561328 H 3.6914766 v -4.5234375 c 0,-0.1992188 0,-0.2578125 -0.1523438,-0.2578125 -0.09375,0 -0.1171875,0 -0.1992187,0.1171875 l -3.05859379,4.6640625 v 0.3164062 z m 0.058594,-0.3164062 H 0.56257031 L 2.9883516,-5.6709766 Z m 0,0"
       style="fill:#000000;fill-opacity:1;fill-rule:nonzero;stroke:none"
       aria-label="4"
       transform="matrix(1.3333333,0,0,1.3333333,192.496,100.89333)" />
    <path
       id="path9"
       d="M 10.44478,10.44478 42.17732,42.17732"
       style="fill:none;stroke:#ff0000;stroke-width:1.19553;stroke-linecap:butt;stroke-linejoin:miter;stroke-miterlimit:10;stroke-dasharray:2.98883, 2.98883;stroke-dashoffset:0;stroke-opacity:1"
       transform="matrix(1.3333333,0,0,-1.3333333,44.636,96.613333)" />
    <path
       id="path10"
       d="M 4.86136,0 0.59775,2.60019 V 0 -2.60019 Z"
       style="fill:#ff0000;fill-opacity:1;fill-rule:nonzero;stroke:#ff0000;stroke-width:1.19553;stroke-linecap:butt;stroke-linejoin:miter;stroke-miterlimit:10;stroke-dasharray:none;stroke-opacity:1"
       transform="matrix(0.9428,-0.9428,-0.9428,-0.9428,100.59063,40.658707)" />
    <path
       id="path11"
       d="m 67.13841,-46.24883 31.73253,31.73255"
       style="fill:none;stroke:#ff0000;stroke-width:1.19553;stroke-linecap:butt;stroke-linejoin:miter;stroke-miterlimit:10;stroke-dasharray:2.98883, 2.98883;stroke-dashoffset:0;stroke-opacity:1"
       transform="matrix(1.3333333,0,0,-1.3333333,44.636,96.613333)" />
    <path
       id="path12"
       d="M 4.86136,0 0.59775,2.60019 V 0 -2.60019 Z"
       style="fill:#ff0000;fill-opacity:1;fill-rule:nonzero;stroke:#ff0000;stroke-width:1.19553;stroke-linecap:butt;stroke-linejoin:miter;stroke-miterlimit:10;stroke-dasharray:none;stroke-opacity:1"
       transform="matrix(0.9428,-0.9428,-0.9428,-0.9428,176.18212,116.2502)" />
    <path
       id="path13"
       d="m 60.5162,42.42577 c 8.05549,-30.06356 8.53399,-50.36417 1.43552,-79.2678"
       style="fill:none;stroke:#ff0000;stroke-width:1.19553;stroke-linecap:butt;stroke-linejoin:miter;stroke-miterlimit:10;stroke-dasharray:2.98883, 2.98883;stroke-dashoffset:0;stroke-opacity:1"
       transform="matrix(1.3333333,0,0,-1.3333333,44.636,96.613333)" />
    <path
       id="path14"
       d="M 4.86136,0 0.59775,2.60019 V 0 -2.60019 Z"
       style="fill:#ff0000;fill-opacity:1;fill-rule:nonzero;stroke:#ff0000;stroke-width:1.19553;stroke-linecap:butt;stroke-linejoin:miter;stroke-miterlimit:10;stroke-dasharray:none;stroke-opacity:1"
       transform="matrix(-0.33121333,1.29148,1.29148,0.33121333,127.33041,145.35869)" />
    <path
       id="path15"
       d="m 52.87102,-42.42577 c -8.0555,30.06356 -8.53404,50.36417 -1.43564,79.2678"
       style="fill:none;stroke:#000000;stroke-width:1.19553;stroke-linecap:butt;stroke-linejoin:miter;stroke-miterlimit:10;stroke-dasharray:none;stroke-opacity:1"
       transform="matrix(1.3333333,0,0,-1.3333333,44.636,96.613333)" />
    <path
       id="path16"
       d="M 4.86136,0 0.59775,2.60019 V 0 -2.60019 Z"
       style="fill:#000000;fill-opacity:1;fill-rule:nonzero;stroke:#000000;stroke-width:1.19553;stroke-linecap:butt;stroke-linejoin:miter;stroke-miterlimit:10;stroke-dasharray:none;stroke-opacity:1"
       transform="matrix(0.33125333,-1.2914667,-1.2914667,-0.33125333,113.12431,47.867853)" />
    <path
       id="path17"
       d="m -13.16095,6.70578 c -3.52217,4.19748 -9.78003,4.74493 -13.97751,1.22278 -4.19748,-3.52217 -4.74493,-9.78002 -1.22276,-13.97749 2.27814,-2.71494 5.83259,-4.00879 9.32292,-3.39337 0.38385,0.06768 0.7617,0.15763 1.1318,0.26884"
       style="fill:none;stroke:#000000;stroke-width:1.19553;stroke-linecap:butt;stroke-linejoin:miter;stroke-miterlimit:10;stroke-dasharray:none;stroke-opacity:1"
       transform="matrix(1.3333333,0,0,-1.3333333,44.636,96.613333)" />
    <path
       id="path18"
       d="M 4.86136,0 0.59775,2.60019 V 0 -2.60019 Z"
       style="fill:#000000;fill-opacity:1;fill-rule:nonzero;stroke:#000000;stroke-width:1.19553;stroke-linecap:butt;stroke-linejoin:miter;stroke-miterlimit:10;stroke-dasharray:none;stroke-opacity:1"
       transform="matrix(1.1245333,-0.71625333,-0.71625333,-1.1245333,20.276933,109.01677)" />
    <path
       id="path19"
       d="m 49.98782,-69.85457 c -4.19748,-3.52217 -4.74493,-9.78003 -1.22277,-13.97751 3.52217,-4.19748 9.78002,-4.74493 13.9775,-1.22278 2.71494,2.27814 4.00879,5.83262 3.39338,9.32294 -0.06769,0.38385 -0.15764,0.76169 -0.26885,1.13179"
       style="fill:none;stroke:#000000;stroke-width:1.19553;stroke-linecap:butt;stroke-linejoin:miter;stroke-miterlimit:10;stroke-dasharray:none;stroke-opacity:1"
       transform="matrix(1.3333333,0,0,-1.3333333,44.636,96.613333)" />
    <path
       id="path20"
       d="M 4.86136,0 0.59775,2.60019 V 0 -2.60019 Z"
       style="fill:#000000;fill-opacity:1;fill-rule:nonzero;stroke:#000000;stroke-width:1.19553;stroke-linecap:butt;stroke-linejoin:miter;stroke-miterlimit:10;stroke-dasharray:none;stroke-opacity:1"
       transform="matrix(-0.71625333,-1.1245333,-1.1245333,0.71625333,132.63093,196.56389)" />
  </g>
</svg>
