<?xml version="1.0" encoding="UTF-8" standalone="no"?>
<!-- Created with Inkscape (http://www.inkscape.org/) -->

<svg
   version="1.1"
   id="svg1"
   width="193.22667"
   height="134.55333"
   viewBox="0 0 193.22667 134.55333"
   sodipodi:docname="upload_leoyzpujvvuuwm7dizaq5fuggx.pdf"
   xmlns:inkscape="http://www.inkscape.org/namespaces/inkscape"
   xmlns:sodipodi="http://sodipodi.sourceforge.net/DTD/sodipodi-0.dtd"
   xmlns="http://www.w3.org/2000/svg"
   xmlns:svg="http://www.w3.org/2000/svg">
  <defs
     id="defs1" />
  <sodipodi:namedview
     id="namedview1"
     pagecolor="#ffffff"
     bordercolor="#000000"
     borderopacity="0.25"
     inkscape:showpageshadow="2"
     inkscape:pageopacity="0.0"
     inkscape:pagecheckerboard="0"
     inkscape:deskcolor="#d1d1d1">
    <inkscape:page
       x="0"
       y="0"
       inkscape:label="1"
       id="page1"
       width="193.22667"
       height="134.55333"
       margin="0"
       bleed="0" />
  </sodipodi:namedview>
  <g
     id="g1"
     inkscape:groupmode="layer"
     inkscape:label="1">
    <path
       id="path1"
       d="M 14.17339,0 C 14.17339,7.82784 7.82784,14.17339 0,14.17339 -7.82784,14.17339 -14.17339,7.82784 -14.17339,0 c 0,-7.82784 6.34555,-14.17339 14.17339,-14.17339 7.82784,0 14.17339,6.34555 14.17339,14.17339 z"
       style="fill:none;stroke:#000000;stroke-width:1.19553;stroke-linecap:butt;stroke-linejoin:miter;stroke-miterlimit:10;stroke-dasharray:none;stroke-opacity:1"
       transform="matrix(1.3333333,0,0,-1.3333333,21.022667,29.481333)" />
    <path
       id="path2"
       d="m 2.9300313,-6.3747109 c 0,-0.234375 0,-0.2578125 -0.234375,-0.2578125 -0.609375,0.6328125 -1.4882813,0.6328125 -1.80468755,0.6328125 v 0.3164062 c 0.19921875,0 0.78515625,0 1.30078125,-0.2578125 v 5.15625001 c 0,0.3515625 -0.035156,0.48046875 -0.9257812,0.48046875 H 0.9495625 V 2.890625e-4 C 1.301125,-0.03486719 2.1565938,-0.03486719 2.5550313,-0.03486719 c 0.3984375,0 1.265625,0 1.6171875,0.0351562525 V -0.30439844 H 3.8558125 c -0.9023437,0 -0.9257812,-0.1171875 -0.9257812,-0.48046875 z m 0,0"
       style="fill:#000000;fill-opacity:1;fill-rule:nonzero;stroke:none"
       aria-label="1"
       transform="matrix(1.3333333,0,0,1.3333333,17.702667,33.761333)" />
    <path
       id="path3"
       d="m 127.56062,0 c 0,7.82784 -6.34555,14.17339 -14.17338,14.17339 -7.82785,0 -14.1734,-6.34555 -14.1734,-14.17339 0,-7.82784 6.34555,-14.17339 14.1734,-14.17339 7.82783,0 14.17338,6.34555 14.17338,14.17339 z"
       style="fill:none;stroke:#000000;stroke-width:1.19553;stroke-linecap:butt;stroke-linejoin:miter;stroke-miterlimit:10;stroke-dasharray:none;stroke-opacity:1"
       transform="matrix(1.3333333,0,0,-1.3333333,21.022667,29.481333)" />
    <path
       id="path4"
       d="M 1.2657344,-0.76142969 2.3204219,-1.7926797 c 1.5585937,-1.3710937 2.15625,-1.9101562 2.15625,-2.90625 0,-1.1367187 -0.9023438,-1.9335937 -2.1210938,-1.9335937 -1.125,0 -1.85156247,0.9140625 -1.85156247,1.8046875 0,0.5507812 0.4921875,0.5507812 0.52734377,0.5507812 0.1640625,0 0.515625,-0.1171875 0.515625,-0.5273437 0,-0.2578125 -0.1875,-0.515625 -0.5273438,-0.515625 -0.0820312,0 -0.10546872,0 -0.12890622,0.011719 0.22265622,-0.6445312 0.76171872,-1.0195312 1.33593752,-1.0195312 0.9140625,0 1.3359375,0.8085937 1.3359375,1.6289062 0,0.796875 -0.4921875,1.5820313 -1.0429688,2.203125 L 0.60948438,-0.36299219 C 0.50401563,-0.25752344 0.50401563,-0.23408594 0.50401563,2.890625e-4 H 4.1954219 L 4.4766719,-1.7340859 H 4.2188594 c -0.046875,0.3046875 -0.1171875,0.73828121 -0.2109375,0.89062496 -0.070313,0.0820313 -0.7265625,0.0820313 -0.9492188,0.0820313 z m 0,0"
       style="fill:#000000;fill-opacity:1;fill-rule:nonzero;stroke:none"
       aria-label="2"
       transform="matrix(1.3333333,0,0,1.3333333,168.88267,33.761333)" />
    <path
       id="path5"
       d="m 13.38702,6.24239 c 30.61208,14.27473 56.00112,14.27473 86.61318,0"
       style="fill:none;stroke:#000000;stroke-width:1.19553;stroke-linecap:butt;stroke-linejoin:miter;stroke-miterlimit:10;stroke-dasharray:none;stroke-opacity:1"
       transform="matrix(1.3333333,0,0,-1.3333333,21.022667,29.481333)" />
    <path
       id="path6"
       d="m 13.38702,-6.24239 c 30.61208,-14.27473 56.00112,-14.27473 86.61318,0"
       style="fill:none;stroke:#000000;stroke-width:1.19553;stroke-linecap:butt;stroke-linejoin:miter;stroke-miterlimit:10;stroke-dasharray:none;stroke-opacity:1"
       transform="matrix(1.3333333,0,0,-1.3333333,21.022667,29.481333)" />
    <path
       id="path7"
       d="M -14.17339,-28.3468 H 127.56062"
       style="fill:none;stroke:#000000;stroke-width:0.3985;stroke-linecap:butt;stroke-linejoin:miter;stroke-miterlimit:10;stroke-dasharray:none;stroke-opacity:1"
       transform="matrix(1.3333333,0,0,-1.3333333,21.022667,29.481333)" />
    <path
       id="path8"
       d="m 14.17339,-56.69362 c 0,7.82785 -6.34555,14.1734 -14.17339,14.1734 -7.82784,0 -14.17339,-6.34555 -14.17339,-14.1734 0,-7.82783 6.34555,-14.17338 14.17339,-14.17338 7.82784,0 14.17339,6.34555 14.17339,14.17338 z"
       style="fill:none;stroke:#000000;stroke-width:1.19553;stroke-linecap:butt;stroke-linejoin:miter;stroke-miterlimit:10;stroke-dasharray:none;stroke-opacity:1"
       transform="matrix(1.3333333,0,0,-1.3333333,21.022667,29.481333)" />
    <path
       id="path9"
       d="m 2.894875,-3.5042344 c 0.8085938,-0.2695312 1.3945313,-0.9726562 1.3945313,-1.7578125 0,-0.8203125 -0.8789063,-1.3710937 -1.8398438,-1.3710937 -1.0078125,0 -1.7578125,0.5976562 -1.7578125,1.3476562 0,0.3398438 0.2109375,0.5273438 0.5039063,0.5273438 0.3046875,0 0.5039062,-0.2226563 0.5039062,-0.515625 0,-0.4921875 -0.46875,-0.4921875 -0.609375,-0.4921875 0.3046875,-0.4921875 0.9609375,-0.6210938 1.3242188,-0.6210938 0.4101562,0 0.9492187,0.2226563 0.9492187,1.1132813 0,0.1289062 -0.011719,0.703125 -0.2695312,1.1367187 -0.3046875,0.4804688 -0.6445313,0.515625 -0.890625,0.515625 -0.082031,0.011719 -0.3164063,0.035156 -0.3867188,0.035156 -0.082031,0.011719 -0.1523437,0.023437 -0.1523437,0.1171875 0,0.1171875 0.070312,0.1171875 0.234375,0.1171875 h 0.4453125 c 0.8085937,0 1.1835937,0.6679687 1.1835937,1.6523437 0,1.34765627 -0.6914062,1.64062502 -1.125,1.64062502 -0.4335937,0 -1.171875,-0.17578125 -1.5234375,-0.76171875 0.3515625,0.0585938 0.65625,-0.1640625 0.65625,-0.53906247 0,-0.3632813 -0.2695312,-0.5625 -0.5625,-0.5625 -0.234375,0 -0.55078125,0.140625 -0.55078125,0.5742187 0,0.91406252 0.92578125,1.57031252 2.00390625,1.57031252 1.21875,0 2.1210938,-0.9140625 2.1210938,-1.92187502 0,-0.8203125 -0.6210938,-1.59375 -1.6523438,-1.8046872 z m 0,0"
       style="fill:#000000;fill-opacity:1;fill-rule:nonzero;stroke:none"
       aria-label="3"
       transform="matrix(1.3333333,0,0,1.3333333,17.702667,109.352)" />
    <path
       id="path10"
       d="m 127.56062,-56.69362 c 0,7.82785 -6.34555,14.1734 -14.17338,14.1734 -7.82785,0 -14.1734,-6.34555 -14.1734,-14.1734 0,-7.82783 6.34555,-14.17338 14.1734,-14.17338 7.82783,0 14.17338,6.34555 14.17338,14.17338 z"
       style="fill:none;stroke:#000000;stroke-width:1.19553;stroke-linecap:butt;stroke-linejoin:miter;stroke-miterlimit:10;stroke-dasharray:none;stroke-opacity:1"
       transform="matrix(1.3333333,0,0,-1.3333333,21.022667,29.481333)" />
    <path
       id="path11"
       d="m 2.9297969,-1.6409531 v 0.86718747 c 0,0.3515625 -0.023437,0.46875 -0.7617188,0.46875 H 1.9571406 v 0.304687505 c 0.4101563,-0.035156255 0.9375,-0.035156255 1.3476563,-0.035156255 0.421875,0 0.9492187,0 1.359375,0.035156255 V -0.30501563 H 4.4532344 c -0.7382813,0 -0.7617188,-0.1171875 -0.7617188,-0.46875 V -1.6409531 H 4.6876094 V -1.9573594 H 3.6915156 v -4.5234375 c 0,-0.1992187 0,-0.2578125 -0.1523437,-0.2578125 -0.09375,0 -0.1171875,0 -0.1992188,0.1171875 l -3.05859372,4.6640625 v 0.3164063 z m 0.058594,-0.3164063 H 0.56260938 L 2.9883906,-5.6722031 Z m 0,0"
       style="fill:#000000;fill-opacity:1;fill-rule:nonzero;stroke:none"
       aria-label="4"
       transform="matrix(1.3333333,0,0,1.3333333,168.88267,109.352)" />
    <path
       id="path12"
       d="m 13.38702,-50.45122 c 28.83895,13.44792 53.04236,14.22687 81.3443,2.33684"
       style="fill:none;stroke:#000000;stroke-width:1.19553;stroke-linecap:butt;stroke-linejoin:miter;stroke-miterlimit:10;stroke-dasharray:none;stroke-opacity:1"
       transform="matrix(1.3333333,0,0,-1.3333333,21.022667,29.481333)" />
    <path
       id="path13"
       d="M 4.86136,0 0.59775,2.60019 V 0 -2.60019 Z"
       style="fill:#000000;fill-opacity:1;fill-rule:nonzero;stroke:#000000;stroke-width:1.19553;stroke-linecap:butt;stroke-linejoin:miter;stroke-miterlimit:10;stroke-dasharray:none;stroke-opacity:1"
       transform="matrix(1.2193333,0.53928,0.53928,-1.2193333,146.97091,93.48324)" />
    <path
       id="path14"
       d="m 13.38702,-62.936 c 28.83895,-13.44788 53.04236,-14.2268 81.3443,-2.33675"
       style="fill:none;stroke:#000000;stroke-width:1.19553;stroke-linecap:butt;stroke-linejoin:miter;stroke-miterlimit:10;stroke-dasharray:none;stroke-opacity:1"
       transform="matrix(1.3333333,0,0,-1.3333333,21.022667,29.481333)" />
    <path
       id="path15"
       d="M 4.86136,0 0.59775,2.60019 V 0 -2.60019 Z"
       style="fill:#000000;fill-opacity:1;fill-rule:nonzero;stroke:#000000;stroke-width:1.19553;stroke-linecap:butt;stroke-linejoin:miter;stroke-miterlimit:10;stroke-dasharray:none;stroke-opacity:1"
       transform="matrix(1.2193867,-0.53924,-0.53924,-1.2193867,146.97067,116.66213)" />
  </g>
</svg>
