<?xml version="1.0" encoding="UTF-8" standalone="no"?>
<!-- Created with Inkscape (http://www.inkscape.org/) -->

<svg
   version="1.1"
   id="svg1"
   width="193.22667"
   height="193.22667"
   viewBox="0 0 193.22667 193.22667"
   sodipodi:docname="upload_rkm54vrdchzpdnxnzyxlmvzeim.pdf"
   xmlns:inkscape="http://www.inkscape.org/namespaces/inkscape"
   xmlns:sodipodi="http://sodipodi.sourceforge.net/DTD/sodipodi-0.dtd"
   xmlns="http://www.w3.org/2000/svg"
   xmlns:svg="http://www.w3.org/2000/svg">
  <defs
     id="defs1" />
  <sodipodi:namedview
     id="namedview1"
     pagecolor="#ffffff"
     bordercolor="#000000"
     borderopacity="0.25"
     inkscape:showpageshadow="2"
     inkscape:pageopacity="0.0"
     inkscape:pagecheckerboard="0"
     inkscape:deskcolor="#d1d1d1">
    <inkscape:page
       x="0"
       y="0"
       inkscape:label="1"
       id="page1"
       width="193.22667"
       height="193.22667"
       margin="0"
       bleed="0" />
  </sodipodi:namedview>
  <g
     id="g1"
     inkscape:groupmode="layer"
     inkscape:label="1">
    <path
       id="path1"
       d="M 14.17339,0 C 14.17339,7.82784 7.82784,14.17339 0,14.17339 -7.82784,14.17339 -14.17339,7.82784 -14.17339,0 c 0,-7.82784 6.34555,-14.17339 14.17339,-14.17339 7.82784,0 14.17339,6.34555 14.17339,14.17339 z"
       style="fill:none;stroke:#000000;stroke-width:1.19553;stroke-linecap:butt;stroke-linejoin:miter;stroke-miterlimit:10;stroke-dasharray:none;stroke-opacity:1"
       transform="matrix(1.3333333,0,0,-1.3333333,96.613333,96.613333)" />
    <path
       id="path2"
       d="m 2.9304141,-6.3741016 c 0,-0.234375 0,-0.2578125 -0.234375,-0.2578125 -0.609375,0.6328125 -1.4882813,0.6328125 -1.80468754,0.6328125 v 0.3164063 c 0.19921874,0 0.78515624,0 1.30078124,-0.2578125 v 5.15624999 c 0,0.3515625 -0.035156,0.48046875 -0.9257812,0.48046875 H 0.94994531 V 8.984375e-4 C 1.3015078,-0.03425781 2.1569766,-0.03425781 2.5554141,-0.03425781 c 0.3984375,0 1.265625,0 1.6171875,0.0351562475 V -0.30378906 H 3.8561953 c -0.9023437,0 -0.9257812,-0.1171875 -0.9257812,-0.48046875 z m 0,0"
       style="fill:#000000;fill-opacity:1;fill-rule:nonzero;stroke:none"
       aria-label="1"
       transform="matrix(1.3333333,0,0,1.3333333,93.292,100.89333)" />
    <path
       id="path3"
       d="m 14.17339,56.69363 c 0,7.82784 -6.34555,14.17339 -14.17339,14.17339 -7.82784,0 -14.17339,-6.34555 -14.17339,-14.17339 0,-7.82785 6.34555,-14.1734 14.17339,-14.1734 7.82784,0 14.17339,6.34555 14.17339,14.1734 z"
       style="fill:none;stroke:#000000;stroke-width:1.19553;stroke-linecap:butt;stroke-linejoin:miter;stroke-miterlimit:10;stroke-dasharray:none;stroke-opacity:1"
       transform="matrix(1.3333333,0,0,-1.3333333,96.613333,96.613333)" />
    <path
       id="path4"
       d="M 1.2663516,-0.76313281 2.3210391,-1.7943828 c 1.5585937,-1.3710938 2.15625,-1.9101563 2.15625,-2.90625 0,-1.1367188 -0.9023438,-1.9335938 -2.1210938,-1.9335938 -1.125,0 -1.85156249,0.9140625 -1.85156249,1.8046875 0,0.5507813 0.4921875,0.5507813 0.52734379,0.5507813 0.1640625,0 0.515625,-0.1171875 0.515625,-0.5273438 0,-0.2578125 -0.1875,-0.515625 -0.5273438,-0.515625 -0.0820312,0 -0.10546874,0 -0.12890624,0.011719 0.22265624,-0.6445313 0.76171874,-1.0195313 1.33593754,-1.0195313 0.9140625,0 1.3359375,0.8085938 1.3359375,1.6289063 0,0.796875 -0.4921875,1.5820312 -1.0429688,2.203125 L 0.61010156,-0.36469531 C 0.50463281,-0.25922656 0.50463281,-0.23578906 0.50463281,-0.00141406 H 4.1960391 l 0.28125,-1.73437504 H 4.2194766 c -0.046875,0.3046875 -0.1171875,0.73828129 -0.2109375,0.89062504 -0.070312,0.0820313 -0.7265625,0.0820313 -0.9492188,0.0820313 z m 0,0"
       style="fill:#000000;fill-opacity:1;fill-rule:nonzero;stroke:none"
       aria-label="2"
       transform="matrix(1.3333333,0,0,1.3333333,93.292,25.302667)" />
    <path
       id="path5"
       d="m 54.26187,40.08847 c 0,7.82785 -6.34555,14.1734 -14.1734,14.1734 -7.82785,0 -14.17339,-6.34555 -14.17339,-14.1734 0,-7.82785 6.34554,-14.17339 14.17339,-14.17339 7.82785,0 14.1734,6.34554 14.1734,14.17339 z"
       style="fill:none;stroke:#000000;stroke-width:1.19553;stroke-linecap:butt;stroke-linejoin:miter;stroke-miterlimit:10;stroke-dasharray:none;stroke-opacity:1"
       transform="matrix(1.3333333,0,0,-1.3333333,96.613333,96.613333)" />
    <path
       id="path6"
       d="m 2.8941719,-3.5048516 c 0.8085937,-0.2695312 1.3945312,-0.9726562 1.3945312,-1.7578125 0,-0.8203125 -0.8789062,-1.3710937 -1.8398437,-1.3710937 -1.0078125,0 -1.75781253,0.5976562 -1.75781253,1.3476562 0,0.3398438 0.2109375,0.5273438 0.50390623,0.5273438 0.3046875,0 0.5039063,-0.2226563 0.5039063,-0.515625 0,-0.4921875 -0.46875,-0.4921875 -0.609375,-0.4921875 0.3046875,-0.4921875 0.9609375,-0.6210938 1.3242187,-0.6210938 0.4101563,0 0.9492188,0.2226563 0.9492188,1.1132813 0,0.1289062 -0.011719,0.703125 -0.2695313,1.1367187 -0.3046875,0.4804688 -0.6445312,0.515625 -0.890625,0.515625 -0.082031,0.011719 -0.3164062,0.035156 -0.3867187,0.035156 -0.082031,0.011719 -0.1523438,0.023437 -0.1523438,0.1171875 0,0.1171875 0.070312,0.1171875 0.234375,0.1171875 h 0.4453125 c 0.8085938,0 1.1835938,0.6679687 1.1835938,1.6523437 0,1.34765629 -0.6914063,1.64062504 -1.125,1.64062504 -0.4335938,0 -1.171875,-0.17578125 -1.52343753,-0.76171875 0.35156253,0.0585938 0.65625003,-0.1640625 0.65625003,-0.53906249 0,-0.3632813 -0.2695313,-0.5625 -0.56250003,-0.5625 -0.234375,0 -0.55078125,0.140625 -0.55078125,0.5742187 0,0.91406254 0.92578128,1.57031254 2.00390628,1.57031254 1.21875,0 2.1210937,-0.9140625 2.1210937,-1.92187504 0,-0.8203125 -0.6210937,-1.59375 -1.6523437,-1.8046872 z m 0,0"
       style="fill:#000000;fill-opacity:1;fill-rule:nonzero;stroke:none"
       aria-label="3"
       transform="matrix(1.3333333,0,0,1.3333333,146.74267,47.442667)" />
    <path
       id="path7"
       d="m 70.86702,0 c 0,7.82784 -6.34555,14.17339 -14.17339,14.17339 -7.82785,0 -14.1734,-6.34555 -14.1734,-14.17339 0,-7.82784 6.34555,-14.17339 14.1734,-14.17339 7.82784,0 14.17339,6.34555 14.17339,14.17339 z"
       style="fill:none;stroke:#000000;stroke-width:1.19553;stroke-linecap:butt;stroke-linejoin:miter;stroke-miterlimit:10;stroke-dasharray:none;stroke-opacity:1"
       transform="matrix(1.3333333,0,0,-1.3333333,96.613333,96.613333)" />
    <path
       id="path8"
       d="m 2.9297969,-1.6397266 v 0.86718754 c 0,0.3515625 -0.023437,0.46875 -0.7617188,0.46875 H 1.9571406 V 8.984375e-4 C 2.3672969,-0.03425781 2.8946406,-0.03425781 3.3047969,-0.03425781 c 0.421875,0 0.9492187,0 1.359375,0.0351562475 V -0.30378906 H 4.4532344 c -0.7382813,0 -0.7617188,-0.1171875 -0.7617188,-0.46875 V -1.6397266 H 4.6876094 V -1.9561328 H 3.6915156 v -4.5234375 c 0,-0.1992188 0,-0.2578125 -0.1523437,-0.2578125 -0.09375,0 -0.1171875,0 -0.1992188,0.1171875 l -3.05859373,4.6640625 v 0.3164062 z m 0.058594,-0.3164062 H 0.56260937 L 2.9883906,-5.6709766 Z m 0,0"
       style="fill:#000000;fill-opacity:1;fill-rule:nonzero;stroke:none"
       aria-label="4"
       transform="matrix(1.3333333,0,0,1.3333333,168.88267,100.89333)" />
    <path
       id="path9"
       d="m 54.26187,-40.08847 c 0,7.82785 -6.34555,14.17339 -14.1734,14.17339 -7.82785,0 -14.17339,-6.34554 -14.17339,-14.17339 0,-7.82785 6.34554,-14.1734 14.17339,-14.1734 7.82785,0 14.1734,6.34555 14.1734,14.1734 z"
       style="fill:none;stroke:#000000;stroke-width:1.19553;stroke-linecap:butt;stroke-linejoin:miter;stroke-miterlimit:10;stroke-dasharray:none;stroke-opacity:1"
       transform="matrix(1.3333333,0,0,-1.3333333,96.613333,96.613333)" />
    <path
       id="path10"
       d="m 4.4762031,-2.0040938 c 0,-1.1835937 -0.8203125,-2.1796875 -1.8984375,-2.1796875 -0.4804687,0 -0.9023437,0.1640625 -1.265625,0.5039063 v -1.9335938 c 0.1992188,0.058594 0.5273438,0.1289063 0.84375,0.1289063 1.2304688,0 1.9335938,-0.9140625 1.9335938,-1.0429688 0,-0.058594 -0.035156,-0.1054687 -0.1054688,-0.1054687 -0.011719,0 -0.035156,0 -0.082031,0.023437 -0.1992188,0.09375 -0.6796875,0.2929687 -1.3476563,0.2929687 -0.3984375,0 -0.8554687,-0.070312 -1.3242187,-0.28125 -0.082031,-0.023437 -0.1054688,-0.023437 -0.1289063,-0.023437 -0.09375,0 -0.09375,0.082031 -0.09375,0.234375 v 2.953125 c 0,0.1757813 0,0.2578125 0.140625,0.2578125 0.070312,0 0.082031,-0.035156 0.1289063,-0.09375 0.1054687,-0.1523437 0.4804687,-0.6914062 1.2773437,-0.6914062 0.5273438,0 0.7734375,0.4570312 0.8554688,0.6328125 0.1523437,0.375 0.1757812,0.7617187 0.1757812,1.2539062 0,0.3515625 0,0.9492188 -0.234375,1.3710938 -0.2460937,0.38671875 -0.609375,0.64453125 -1.0664062,0.64453125 -0.7265625,0 -1.30078128,-0.52734375 -1.46484378,-1.11328125 0.0234375,0.011719 0.0585938,0.011719 0.1640625,0.011719 0.32812498,0 0.50390628,-0.2460937 0.50390628,-0.4804687 0,-0.2460938 -0.1757813,-0.4921875 -0.50390628,-0.4921875 -0.140625,0 -0.48046875,0.070312 -0.48046875,0.5273437 0,0.8554688 0.67968753,1.82812505 1.79296873,1.82812505 1.1601563,0 2.1796875,-0.9609375 2.1796873,-2.22656285 z m 0,0"
       style="fill:#000000;fill-opacity:1;fill-rule:nonzero;stroke:none"
       aria-label="5"
       transform="matrix(1.3333333,0,0,1.3333333,146.74267,154.344)" />
    <path
       id="path11"
       d="m 14.17339,-56.69363 c 0,7.82785 -6.34555,14.1734 -14.17339,14.1734 -7.82784,0 -14.17339,-6.34555 -14.17339,-14.1734 0,-7.82784 6.34555,-14.17339 14.17339,-14.17339 7.82784,0 14.17339,6.34555 14.17339,14.17339 z"
       style="fill:none;stroke:#000000;stroke-width:1.19553;stroke-linecap:butt;stroke-linejoin:miter;stroke-miterlimit:10;stroke-dasharray:none;stroke-opacity:1"
       transform="matrix(1.3333333,0,0,-1.3333333,96.613333,96.613333)" />
    <path
       id="path12"
       d="m 1.3132266,-3.26925 v -0.234375 c 0,-2.5195313 1.2421875,-2.8828125 1.7460937,-2.8828125 0.234375,0 0.65625,0.058594 0.8789063,0.3984375 -0.1523438,0 -0.5507813,0 -0.5507813,0.4453125 0,0.3164062 0.234375,0.4570312 0.4570313,0.4570312 0.1640625,0 0.4570312,-0.082031 0.4570312,-0.46875 0,-0.5976562 -0.4335937,-1.078125 -1.265625,-1.078125 -1.2773437,0 -2.61328124,1.2890625 -2.61328124,3.4804688 0,2.66015625 1.14843754,3.375 2.07421874,3.375 1.1132813,0 2.0507813,-0.9375 2.0507813,-2.25 0,-1.265625 -0.8789063,-2.2265625 -1.9921875,-2.2265625 -0.6679688,0 -1.0429688,0.5039062 -1.2421875,0.984375 z m 1.1835937,3.2109375 c -0.6210937,0 -0.9257812,-0.59765625 -0.984375,-0.75 -0.1757812,-0.46875 -0.1757812,-1.265625 -0.1757812,-1.4414063 0,-0.7734375 0.3164062,-1.7695312 1.21875,-1.7695312 0.1523437,0 0.609375,0 0.9257812,0.609375 0.1757813,0.375 0.1757813,0.8789062 0.1757813,1.3710937 0,0.4804688 0,0.9726563 -0.1640625,1.33593755 C 3.1882266,-0.1051875 2.7311953,-0.0583125 2.4968203,-0.0583125 Z m 0,0"
       style="fill:#000000;fill-opacity:1;fill-rule:nonzero;stroke:none"
       aria-label="6"
       transform="matrix(1.3333333,0,0,1.3333333,93.292,176.484)" />
    <path
       id="path13"
       d="m -25.91508,-40.08847 c 0,7.82785 -6.34554,14.17339 -14.17339,14.17339 -7.82785,0 -14.1734,-6.34554 -14.1734,-14.17339 0,-7.82785 6.34555,-14.1734 14.1734,-14.1734 7.82785,0 14.17339,6.34555 14.17339,14.1734 z"
       style="fill:none;stroke:#000000;stroke-width:1.19553;stroke-linecap:butt;stroke-linejoin:miter;stroke-miterlimit:10;stroke-dasharray:none;stroke-opacity:1"
       transform="matrix(1.3333333,0,0,-1.3333333,96.613333,96.613333)" />
    <path
       id="path14"
       d="m 4.7449766,-6.0705 c 0.082031,-0.1171875 0.082031,-0.140625 0.082031,-0.3398438 H 2.4129453 c -1.21875,0 -1.2421875,-0.1289062 -1.2773437,-0.328125 H 0.88950781 l -0.328125,2.0507813 h 0.24609375 c 0.0234375,-0.1523438 0.1171875,-0.7851563 0.24609374,-0.9023438 0.070312,-0.058594 0.84375,-0.058594 0.9726563,-0.058594 h 2.0625 c -0.1054688,0.1640625 -0.890625,1.2421875 -1.1132813,1.5703125 -0.890625,1.3476562 -1.21875,2.7304687 -1.21875,3.75 0,0.09375 0,0.55078125 0.4570313,0.55078125 0.4570312,0 0.4570312,-0.45703125 0.4570312,-0.55078125 v -0.50390625 c 0,-0.55078125 0.023437,-1.10156255 0.1054688,-1.64062505 0.046875,-0.2226562 0.1757812,-1.078125 0.6210937,-1.6992187 z m 0,0"
       style="fill:#000000;fill-opacity:1;fill-rule:nonzero;stroke:none"
       aria-label="7"
       transform="matrix(1.3333333,0,0,1.3333333,39.841333,154.344)" />
    <path
       id="path15"
       d="m -42.52023,0 c 0,7.82784 -6.34555,14.17339 -14.1734,14.17339 -7.82784,0 -14.17339,-6.34555 -14.17339,-14.17339 0,-7.82784 6.34555,-14.17339 14.17339,-14.17339 7.82785,0 14.1734,6.34555 14.1734,14.17339 z"
       style="fill:none;stroke:#000000;stroke-width:1.19553;stroke-linecap:butt;stroke-linejoin:miter;stroke-miterlimit:10;stroke-dasharray:none;stroke-opacity:1"
       transform="matrix(1.3333333,0,0,-1.3333333,96.613333,96.613333)" />
    <path
       id="path16"
       d="M 1.63025,-4.5459766 C 1.1615,-4.8506641 1.1263437,-5.1905078 1.1263437,-5.3545703 c 0,-0.609375 0.6445313,-1.03125 1.359375,-1.03125 0.7265625,0 1.359375,0.515625 1.359375,1.2421875 0,0.5625 -0.3867187,1.0429687 -0.984375,1.3945312 z m 1.453125,0.9375 c 0.7148437,-0.3632812 1.2070312,-0.8789062 1.2070312,-1.5351562 0,-0.9257813 -0.890625,-1.4882813 -1.7929687,-1.4882813 -0.9960938,0 -1.8046875,0.7382813 -1.8046875,1.6640625 0,0.1757813 0.0117188,0.6210938 0.4335937,1.0898438 0.1054688,0.1289062 0.4804688,0.375 0.7265625,0.5390625 -0.5742187,0.2929687 -1.42968745,0.84375 -1.42968745,1.8398437 0,1.05468754 1.00781245,1.72265629 2.06249995,1.72265629 1.125,0 2.0625,-0.83203125 2.0625,-1.89843749 0,-0.3515625 -0.1054687,-0.8085938 -0.4804687,-1.21875 -0.1875,-0.2109375 -0.3515625,-0.3164063 -0.984375,-0.7148438 z m -0.9960938,0.421875 1.21875,0.7734375 c 0.28125,0.1875 0.75,0.4921875 0.75,1.1015625 0,0.73828129 -0.75,1.25390629 -1.5585937,1.25390629 -0.8671875,0 -1.58203125,-0.62109375 -1.58203125,-1.44140629 0,-0.5859375 0.31640625,-1.21875 1.17187495,-1.6875 z m 0,0"
       style="fill:#000000;fill-opacity:1;fill-rule:nonzero;stroke:none"
       aria-label="8"
       transform="matrix(1.3333333,0,0,1.3333333,17.701333,100.89333)" />
    <path
       id="path17"
       d="m -25.91508,40.08847 c 0,7.82785 -6.34554,14.1734 -14.17339,14.1734 -7.82785,0 -14.1734,-6.34555 -14.1734,-14.1734 0,-7.82785 6.34555,-14.17339 14.1734,-14.17339 7.82785,0 14.17339,6.34554 14.17339,14.17339 z"
       style="fill:none;stroke:#000000;stroke-width:1.19553;stroke-linecap:butt;stroke-linejoin:miter;stroke-miterlimit:10;stroke-dasharray:none;stroke-opacity:1"
       transform="matrix(1.3333333,0,0,-1.3333333,96.613333,96.613333)" />
    <path
       id="path18"
       d="m 3.6551328,-3.1650078 v 0.3164062 c 0,2.33203129 -1.03125,2.78906254 -1.6171875,2.78906254 -0.1640625,0 -0.703125,-0.0234375 -0.9726562,-0.36328125 0.4335937,0 0.515625,-0.28125 0.515625,-0.45703125 0,-0.30468754 -0.234375,-0.45703124 -0.4570313,-0.45703124 -0.16406249,0 -0.45703124,0.09375 -0.45703124,0.48046874 0,0.66796875 0.53906254,1.078125 1.38281254,1.078125 1.2890625,0 2.4960937,-1.35937504 2.4960937,-3.50390624 0,-2.671875 -1.1367187,-3.3515625 -2.0273437,-3.3515625 -0.5507813,0 -1.03125,0.1757812 -1.4648438,0.6210937 -0.41015624,0.4570313 -0.63281249,0.8671875 -0.63281249,1.6171875 0,1.2421875 0.87890629,2.2265625 1.99218749,2.2265625 0.609375,0 1.0078125,-0.421875 1.2421875,-0.9960937 z m -1.2304687,0.7617187 c -0.1640625,0 -0.6210938,0 -0.9257813,-0.6210937 -0.1875,-0.375 -0.1875,-0.8671875 -0.1875,-1.359375 0,-0.5390625 0,-1.0078125 0.2109375,-1.3710938 0.2695313,-0.5039062 0.6445313,-0.6328125 0.9960938,-0.6328125 0.4570312,0 0.7851562,0.3398438 0.9609375,0.7851563 0.1171875,0.3164062 0.1523437,0.9492187 0.1523437,1.40625 0,0.8320312 -0.3398437,1.7929687 -1.2070312,1.7929687 z m 0,0"
       style="fill:#000000;fill-opacity:1;fill-rule:nonzero;stroke:none"
       aria-label="9"
       transform="matrix(1.3333333,0,0,1.3333333,39.841333,47.442667)" />
    <path
       id="path19"
       d="M 0,14.77115 V 41.92247"
       style="fill:none;stroke:#000000;stroke-width:1.19553;stroke-linecap:butt;stroke-linejoin:miter;stroke-miterlimit:10;stroke-dasharray:none;stroke-opacity:1"
       transform="matrix(1.3333333,0,0,-1.3333333,96.613333,96.613333)" />
    <path
       id="path20"
       d="m 10.44478,10.44478 19.1989,19.1989"
       style="fill:none;stroke:#000000;stroke-width:1.19553;stroke-linecap:butt;stroke-linejoin:miter;stroke-miterlimit:10;stroke-dasharray:none;stroke-opacity:1"
       transform="matrix(1.3333333,0,0,-1.3333333,96.613333,96.613333)" />
    <path
       id="path21"
       d="M 14.77115,0 H 41.92247"
       style="fill:none;stroke:#000000;stroke-width:1.19553;stroke-linecap:butt;stroke-linejoin:miter;stroke-miterlimit:10;stroke-dasharray:none;stroke-opacity:1"
       transform="matrix(1.3333333,0,0,-1.3333333,96.613333,96.613333)" />
    <path
       id="path22"
       d="m 10.44478,-10.44478 19.1989,-19.1989"
       style="fill:none;stroke:#000000;stroke-width:1.19553;stroke-linecap:butt;stroke-linejoin:miter;stroke-miterlimit:10;stroke-dasharray:none;stroke-opacity:1"
       transform="matrix(1.3333333,0,0,-1.3333333,96.613333,96.613333)" />
    <path
       id="path23"
       d="M 0,-14.77115 V -41.92247"
       style="fill:none;stroke:#000000;stroke-width:1.19553;stroke-linecap:butt;stroke-linejoin:miter;stroke-miterlimit:10;stroke-dasharray:none;stroke-opacity:1"
       transform="matrix(1.3333333,0,0,-1.3333333,96.613333,96.613333)" />
    <path
       id="path24"
       d="m -10.44478,-10.44478 -19.1989,-19.1989"
       style="fill:none;stroke:#000000;stroke-width:1.19553;stroke-linecap:butt;stroke-linejoin:miter;stroke-miterlimit:10;stroke-dasharray:none;stroke-opacity:1"
       transform="matrix(1.3333333,0,0,-1.3333333,96.613333,96.613333)" />
    <path
       id="path25"
       d="M -14.77115,0 H -41.92247"
       style="fill:none;stroke:#000000;stroke-width:1.19553;stroke-linecap:butt;stroke-linejoin:miter;stroke-miterlimit:10;stroke-dasharray:none;stroke-opacity:1"
       transform="matrix(1.3333333,0,0,-1.3333333,96.613333,96.613333)" />
    <path
       id="path26"
       d="m -10.44478,10.44478 -19.1989,19.1989"
       style="fill:none;stroke:#000000;stroke-width:1.19553;stroke-linecap:butt;stroke-linejoin:miter;stroke-miterlimit:10;stroke-dasharray:none;stroke-opacity:1"
       transform="matrix(1.3333333,0,0,-1.3333333,96.613333,96.613333)" />
  </g>
</svg>
