<?xml version="1.0" encoding="utf-8"?>
<!-- Svg Vector Icons : http://www.onlinewebfonts.com/icon -->
<!DOCTYPE svg PUBLIC "-//W3C//DTD SVG 1.1//EN" "http://www.w3.org/Graphics/SVG/1.1/DTD/svg11.dtd">
<svg version="1.1" xmlns="http://www.w3.org/2000/svg" xmlns:xlink="http://www.w3.org/1999/xlink" x="0px" y="0px" viewBox="0 0 256 256" enable-background="new 0 0 256 256" xml:space="preserve">
<metadata> Svg Vector Icons : http://www.onlinewebfonts.com/icon </metadata>
<g><g><path fill="#000000" d="M214.8,187.1c-2.2-1.9-5.5-1.9-7.4,0.3c-1.8,2.1-1.5,5.4,0.7,7.3c2.2,1.9,5.5,1.8,7.3-0.3C217.3,192.3,217,189,214.8,187.1z"/><path fill="#000000" d="M198.7,160c-26.1,0-47.3,21.2-47.3,47.3s21.2,47.4,47.3,47.4s47.3-21.2,47.3-47.3C246,181.2,224.8,160,198.7,160z M221.4,206.7c-3.9,4.5-9.9,6.1-15.6,4.9l-21.5,24.6l-8,0.3c-1.3,0.1-2.8-1.3-2.9-2.5l-1-9.9l0.1-0.1l5.9-0.2l-0.6-5.7l5.7-0.2l-0.5-5.7l6.1-0.8l-0.4-6.2l4.3-4.9c-2.1-5.5-1.3-11.8,2.7-16.3c5.9-6.8,15.7-7.9,22.8-1.6C225.4,188.6,227.3,199.9,221.4,206.7z"/><path fill="#000000" d="M47.3,55.8C47.4,25.6,73,1.2,104.5,1.3c31.5,0.1,57,24.6,56.9,54.8c-0.1,30.2-25.7,54.6-57.2,54.5c-31.4-0.1-56.8-24.4-56.9-54.5V55.8L47.3,55.8z"/><path fill="#000000" d="M175.4,141c-0.4-0.5-0.7-0.8-1.2-1.2c-17.5-17.3-41.2-28-67.2-28c-49.9,0-91.1,39-96.9,89.4c-0.1,0.3-0.1,0.6-0.1,0.9c0,0.3,0,0.5,0,0.8c0,5.7,4.4,10.3,10,10.7c0.2,0,0.5,0,0.8,0c0.3,0,0.5,0,0.7,0c0,0,85.6,0,108,0c3.6-0.6,6.4-3.4,7.1-7c0.6-24.5,14.2-45.4,35.7-55.1c0.4-0.1,0.8-0.3,1.2-0.5c2.1-1.2,3.5-3.4,3.5-5.9C176.8,143.5,176.3,142.1,175.4,141z"/></g></g>
</svg>