<svg width="3980" height="825" xmlns="http://www.w3.org/2000/svg" xmlns:xlink="http://www.w3.org/1999/xlink" xml:space="preserve" overflow="hidden"><g transform="translate(-69 -1403)"><g><g><g><path d="M1770.5 1619.81C1770.5 1635 1758.19 1647.31 1743 1647.31 1727.81 1647.31 1715.5 1635 1715.5 1619.81 1715.5 1604.62 1727.81 1592.31 1743 1592.31 1758.19 1592.31 1770.5 1604.62 1770.5 1619.81Z"/><path d="M1817.94 1761.44 1798.69 1679.62C1798 1676.87 1796.63 1674.12 1794.56 1672.06 1786.31 1665.19 1776.69 1660.37 1765.69 1656.94 1758.13 1655.56 1750.56 1654.19 1743 1654.19 1735.44 1654.19 1727.88 1655.56 1720.31 1657.62 1709.31 1660.37 1699.69 1665.87 1691.44 1672.75 1689.38 1674.81 1688 1677.56 1687.31 1680.31L1668.06 1762.12C1668.06 1762.81 1667.38 1764.19 1667.38 1765.56 1667.38 1773.12 1673.56 1779.31 1681.13 1779.31 1687.31 1779.31 1692.81 1774.5 1694.19 1769L1708.63 1709.19 1708.63 1901.69 1736.13 1901.69 1736.13 1777.94 1749.88 1777.94 1749.88 1901.69 1777.38 1901.69 1777.38 1708.5 1791.81 1768.31C1793.19 1773.81 1798.69 1778.62 1804.88 1778.62 1812.44 1778.62 1818.63 1772.44 1818.63 1764.87 1818.63 1763.5 1817.94 1762.12 1817.94 1761.44Z"/></g></g></g><g><g><g><path d="M2337.5 1613.81C2337.5 1629 2325.19 1641.31 2310 1641.31 2294.81 1641.31 2282.5 1629 2282.5 1613.81 2282.5 1598.62 2294.81 1586.31 2310 1586.31 2325.19 1586.31 2337.5 1598.62 2337.5 1613.81Z"/><path d="M2384.94 1755.44 2365.69 1673.63C2365 1670.88 2363.62 1668.13 2361.56 1666.06 2353.31 1659.19 2343.69 1654.38 2332.69 1650.94 2325.12 1649.56 2317.56 1648.19 2310 1648.19 2302.44 1648.19 2294.88 1649.56 2287.31 1651.63 2276.31 1654.38 2266.69 1659.88 2258.44 1666.75 2256.38 1668.81 2255 1671.56 2254.31 1674.31L2235.06 1756.13C2235.06 1756.81 2234.38 1758.19 2234.38 1759.56 2234.38 1767.13 2240.56 1773.31 2248.12 1773.31 2254.31 1773.31 2259.81 1768.5 2261.19 1763L2275.62 1703.19 2275.62 1895.69 2303.12 1895.69 2303.12 1771.94 2316.88 1771.94 2316.88 1895.69 2344.38 1895.69 2344.38 1702.5 2358.81 1762.31C2360.19 1767.81 2365.69 1772.63 2371.88 1772.63 2379.44 1772.63 2385.62 1766.44 2385.62 1758.88 2385.62 1757.5 2384.94 1756.13 2384.94 1755.44Z"/></g></g></g><g><g><g><path d="M185.247 36.3229C185.247 50.9124 173.42 62.7396 158.83 62.7396 144.241 62.7396 132.413 50.9124 132.413 36.3229 132.413 21.7334 144.241 9.90625 158.83 9.90625 173.42 9.90625 185.247 21.7334 185.247 36.3229Z" transform="matrix(1 0 0 1 1866 1582)"/><path d="M230.816 171.048 207.041 89.1562C206.38 85.8541 204.399 83.2125 201.757 81.8916 193.832 76.6083 184.586 73.3062 174.02 70.6646 168.736 70.0042 164.114 69.3437 158.83 69.3437 153.547 69.3437 148.924 70.0042 143.641 70.6646 133.074 72.6458 123.828 76.6083 115.903 81.8916 113.261 83.8729 111.28 85.8541 110.62 89.1562L86.1844 171.048C84.2031 178.312 88.1656 185.577 95.4302 187.558 96.751 188.219 98.0719 188.219 99.3927 188.219 105.336 188.219 110.62 184.256 111.941 178.973L132.413 109.629 132.413 132.744 107.978 214.635 125.809 214.635 125.809 307.094 152.226 307.094 152.226 214.635 165.434 214.635 165.434 307.094 191.851 307.094 191.851 214.635 209.682 214.635 185.247 132.744 185.247 109.629 205.72 178.973C207.701 184.917 212.984 188.219 218.268 188.219 219.588 188.219 220.909 188.219 222.23 187.558 228.834 185.577 232.797 178.312 230.816 171.048Z" transform="matrix(1 0 0 1 1866 1582)"/></g></g></g><g><g><g><path d="M112.289 421.083C112.289 405.644 124.921 393.011 140.361 393.011L336.867 393.011 336.867 617.589 112.289 617.589 112.289 421.083ZM393.011 393.011 617.589 393.011 617.589 617.589 393.011 617.589 393.011 393.011ZM673.733 393.011 898.311 393.011 898.311 617.589 673.733 617.589 673.733 393.011ZM954.456 393.011 1141.14 393.011C1167.8 393.011 1191.67 412.662 1195.88 439.33L1228.16 638.643C1230.97 659.697 1233.77 680.751 1233.77 701.806L1038.67 701.806 954.456 617.589 954.456 393.011ZM56.1444 393.011 56.1444 898.311C56.1444 929.191 81.4095 954.456 112.289 954.456L115.096 954.456C113.693 946.034 112.289 936.209 112.289 926.383 112.289 849.185 175.451 786.022 252.65 786.022 329.849 786.022 393.011 849.185 393.011 926.383 393.011 936.209 391.608 946.034 390.204 954.456L901.118 954.456C899.715 946.034 898.311 936.209 898.311 926.383 898.311 849.185 961.474 786.022 1038.67 786.022 1115.87 786.022 1179.03 849.185 1179.03 926.383 1179.03 936.209 1177.63 946.034 1176.23 954.456L1235.18 954.456C1266.06 954.456 1291.32 929.191 1291.32 898.311L1291.32 718.649C1291.32 689.173 1288.52 658.294 1284.3 628.818L1252.02 428.101C1242.2 374.764 1195.88 335.463 1141.14 335.463L112.289 335.463C81.4095 336.867 56.1444 362.132 56.1444 393.011Z" fill="#D2AA00" transform="matrix(1.0004 0 0 1 1526 1137.62)"/><path d="M1136.93 926.383C1136.93 980.647 1092.94 1024.64 1038.67 1024.64 984.409 1024.64 940.419 980.647 940.419 926.383 940.419 872.12 984.409 828.131 1038.67 828.131 1092.94 828.131 1136.93 872.12 1136.93 926.383Z" fill="#D2AA00" transform="matrix(1.0004 0 0 1 1526 1137.62)"/><path d="M350.903 926.383C350.903 980.647 306.914 1024.64 252.65 1024.64 198.386 1024.64 154.397 980.647 154.397 926.383 154.397 872.12 198.386 828.131 252.65 828.131 306.914 828.131 350.903 872.12 350.903 926.383Z" fill="#D2AA00" transform="matrix(1.0004 0 0 1 1526 1137.62)"/></g></g></g><g><g><g><path d="M350.099 159.003 455.129 264.763 475.552 244.34 350.099 123.993 221.73 246.528 242.152 266.951Z" fill="#7F7F7F" transform="matrix(1.00114 0 0 1 3348 1357.8)"/><path d="M583.499 422.307 525.149 422.307 525.149 363.957 583.499 363.957 583.499 422.307ZM583.499 509.832 525.149 509.832 525.149 451.482 583.499 451.482 583.499 509.832ZM495.974 422.307 437.624 422.307 437.624 363.957 495.974 363.957 495.974 422.307ZM495.974 509.832 437.624 509.832 437.624 451.482 495.974 451.482 495.974 509.832ZM401.155 422.307 299.043 422.307 299.043 393.132 401.155 393.132 401.155 422.307ZM350.099 283.726C362.499 283.726 371.98 293.208 371.98 305.608 371.98 318.007 362.499 327.489 350.099 327.489 337.7 327.489 328.218 318.007 328.218 305.608 328.218 293.208 337.7 283.726 350.099 283.726ZM262.574 422.307 204.225 422.307 204.225 363.957 262.574 363.957 262.574 422.307ZM262.574 509.832 204.225 509.832 204.225 451.482 262.574 451.482 262.574 509.832ZM175.05 422.307 116.7 422.307 116.7 363.957 175.05 363.957 175.05 422.307ZM175.05 509.832 116.7 509.832 116.7 451.482 175.05 451.482 175.05 509.832ZM437.624 327.489 437.624 283.726 350.099 196.201 262.574 283.726 262.574 327.489 87.5248 327.489 87.5248 575.476 299.043 575.476 299.043 495.245C299.043 474.822 313.631 451.482 350.099 451.482 386.568 451.482 401.155 474.822 401.155 495.245L401.155 575.476 612.674 575.476 612.674 327.489 437.624 327.489Z" fill="#7F7F7F" transform="matrix(1.00114 0 0 1 3348 1357.8)"/></g></g></g><g><g><g><path d="M164.25 79.3876 164.25 41.0626 146 41.0626 146 62.0501 109.5 27.375 109.5 27.375 13.6875 118.625 23.9532 127.294 109.5 46.0813 109.5 46.0813 195.047 127.294 205.313 118.625Z" stroke="#000000" stroke-width="2.28125" fill="#7F7F7F" transform="matrix(1.00456 0 0 1 69.0001 1458)"/><path d="M41.0626 123.872 41.0626 191.625 95.8126 191.625 95.8126 134.594 123.188 134.594 123.188 191.625 177.938 191.625 177.938 123.872 109.5 58.8563 41.0626 123.872ZM82.1251 161.969 54.7501 161.969 54.7501 134.594 82.1251 134.594 82.1251 161.969ZM136.875 134.594 164.25 134.594 164.25 161.969 136.875 161.969 136.875 134.594Z" stroke="#000000" stroke-width="2.28125" fill="#7F7F7F" transform="matrix(1.00456 0 0 1 69.0001 1458)"/></g></g></g><g><g><g><path d="M391.5 189.225 391.5 97.875 348 97.875 348 147.9 261 65.25 261 65.25 32.625 282.75 57.0937 303.412 261 109.837 261 109.837 464.906 303.412 489.375 282.75Z" stroke="#000000" stroke-width="5.4375" fill="#0070C0" transform="matrix(1 0 0 1 702 1498)"/><path d="M97.875 295.256 97.875 456.75 228.375 456.75 228.375 320.812 293.625 320.812 293.625 456.75 424.125 456.75 424.125 295.256 261 140.287 97.875 295.256ZM195.75 386.062 130.5 386.062 130.5 320.812 195.75 320.812 195.75 386.062ZM326.25 320.812 391.5 320.812 391.5 386.062 326.25 386.062 326.25 320.812Z" stroke="#000000" stroke-width="5.4375" fill="#0070C0" transform="matrix(1 0 0 1 702 1498)"/></g></g></g><g><g><g><path d="M612.5 1637.62 612.5 1579.88 585 1579.88 585 1611.5 530 1559.25 530 1559.25 385.625 1696.75 401.094 1709.81 530 1587.44 530 1587.44 658.906 1709.81 674.375 1696.75Z" stroke="#000000" stroke-width="3.4375" fill="#948A54"/><path d="M426.875 1704.66 426.875 1806.75 509.375 1806.75 509.375 1720.81 550.625 1720.81 550.625 1806.75 633.125 1806.75 633.125 1704.66 530 1606.69 426.875 1704.66ZM488.75 1762.06 447.5 1762.06 447.5 1720.81 488.75 1720.81 488.75 1762.06ZM571.25 1720.81 612.5 1720.81 612.5 1762.06 571.25 1762.06 571.25 1720.81Z" stroke="#000000" stroke-width="3.4375" fill="#948A54"/></g></g></g><g><g><g><path d="M972.281 1860.6C972.281 1865.67 968.177 1869.77 963.114 1869.77 958.052 1869.77 953.948 1865.67 953.948 1860.6 953.948 1855.54 958.052 1851.44 963.114 1851.44 968.177 1851.44 972.281 1855.54 972.281 1860.6Z"/><path d="M988.094 1907.35 979.844 1878.94C979.614 1877.79 978.927 1876.88 978.01 1876.42 975.26 1874.58 972.052 1873.44 968.385 1872.52 966.552 1872.29 964.948 1872.06 963.114 1872.06 961.281 1872.06 959.677 1872.29 957.844 1872.52 954.177 1873.21 950.969 1874.58 948.219 1876.42 947.302 1877.1 946.614 1877.79 946.385 1878.94L937.906 1907.35C937.219 1909.88 938.594 1912.4 941.114 1913.08 941.573 1913.31 942.031 1913.31 942.489 1913.31 944.552 1913.31 946.385 1911.94 946.844 1910.1L953.948 1886.04 953.948 1894.06 945.469 1922.48 951.656 1922.48 951.656 1954.56 960.823 1954.56 960.823 1922.48 965.406 1922.48 965.406 1954.56 974.573 1954.56 974.573 1922.48 980.76 1922.48 972.281 1894.06 972.281 1886.04 979.385 1910.1C980.073 1912.17 981.906 1913.31 983.739 1913.31 984.198 1913.31 984.656 1913.31 985.114 1913.08 987.406 1912.4 988.781 1909.88 988.094 1907.35Z"/></g></g></g><g><g><g><path d="M40.9061 8.02081C40.9061 11.2425 38.2945 13.8541 35.0728 13.8541 31.8512 13.8541 29.2395 11.2425 29.2395 8.02081 29.2395 4.79916 31.8512 2.18749 35.0728 2.18749 38.2945 2.18749 40.9061 4.79916 40.9061 8.02081Z" transform="matrix(1.00001 0 0 1 495 1741)"/><path d="M50.9686 37.7707 45.7186 19.6874C45.5728 18.9583 45.1353 18.3749 44.5519 18.0833 42.8019 16.9166 40.7603 16.1874 38.427 15.6041 37.2603 15.4583 36.2395 15.3125 35.0728 15.3125 33.9061 15.3125 32.8853 15.4583 31.7186 15.6041 29.3853 16.0416 27.3437 16.9166 25.5937 18.0833 25.0103 18.5208 24.5728 18.9583 24.427 19.6874L19.0312 37.7707C18.5937 39.3749 19.4687 40.979 21.0728 41.4165 21.3645 41.5624 21.6562 41.5624 21.9478 41.5624 23.2603 41.5624 24.427 40.6874 24.7187 39.5207L29.2395 24.2083 29.2395 29.3124 23.8437 47.3957 27.7812 47.3957 27.7812 67.8123 33.6145 67.8123 33.6145 47.3957 36.5311 47.3957 36.5311 67.8123 42.3644 67.8123 42.3644 47.3957 46.3019 47.3957 40.9061 29.3124 40.9061 24.2083 45.4269 39.5207C45.8644 40.8332 47.0311 41.5624 48.1978 41.5624 48.4894 41.5624 48.7811 41.5624 49.0728 41.4165 50.5311 40.979 51.4061 39.3749 50.9686 37.7707Z" transform="matrix(1.00001 0 0 1 495 1741)"/></g></g></g><g><g><g><path d="M184.141 1601.3C184.141 1603.83 182.089 1605.89 179.557 1605.89 177.026 1605.89 174.974 1603.83 174.974 1601.3 174.974 1598.77 177.026 1596.72 179.557 1596.72 182.089 1596.72 184.141 1598.77 184.141 1601.3Z"/><path d="M192.047 1624.68 187.922 1610.47C187.807 1609.9 187.463 1609.44 187.005 1609.21 185.63 1608.29 184.026 1607.72 182.193 1607.26 181.276 1607.15 180.474 1607.03 179.557 1607.03 178.641 1607.03 177.838 1607.15 176.922 1607.26 175.088 1607.6 173.484 1608.29 172.109 1609.21 171.651 1609.55 171.307 1609.9 171.193 1610.47L166.953 1624.68C166.609 1625.94 167.297 1627.2 168.557 1627.54 168.786 1627.66 169.016 1627.66 169.245 1627.66 170.276 1627.66 171.193 1626.97 171.422 1626.05L174.974 1614.02 174.974 1618.03 170.734 1632.24 173.828 1632.24 173.828 1648.28 178.411 1648.28 178.411 1632.24 180.703 1632.24 180.703 1648.28 185.286 1648.28 185.286 1632.24 188.38 1632.24 184.141 1618.03 184.141 1614.02 187.693 1626.05C188.036 1627.08 188.953 1627.66 189.87 1627.66 190.099 1627.66 190.328 1627.66 190.557 1627.54 191.703 1627.2 192.391 1625.94 192.047 1624.68Z"/></g></g></g><g><g><g><path d="M107.215 143.125 121.814 143.125 126.442 128.813 102.587 128.813 107.215 143.125Z" transform="matrix(1.00437 0 0 1 2527 1569)"/><path d="M107.573 147.896 104.329 194.96 114.514 205.146 124.7 194.96 121.456 147.896 107.573 147.896Z" transform="matrix(1.00437 0 0 1 2527 1569)"/><path d="M190.834 154.957C190.7 147.959 187.43 141.391 181.926 137.066 173.014 129.772 162.54 125.268 151.546 121.337L139.845 116.535C138.95 116.167 138.366 115.296 138.366 114.328L138.366 108.475C147.2 101.405 152.432 90.7731 152.645 79.4607L158.723 69.034C159.633 66.8846 159.999 64.5435 159.787 62.2189 158.405 46.5858 148.924 32.8231 134.81 25.9605 133.673 25.4271 132.337 25.5464 131.313 26.273L128.903 27.9428 126.239 24.3003C125.419 23.1514 124.185 22.3655 122.797 22.1081 120.315 21.6798 117.801 21.4659 115.283 21.4688 93.798 21.4715 75.3547 36.7591 71.367 57.8703L71.2716 58.3903C70.1134 64.5848 67.7149 70.481 64.2203 75.7252L76.3573 75.7252 76.3573 78.7189C76.358 90.2872 81.615 101.228 90.646 108.458L90.646 114.316C90.646 115.284 90.0618 116.155 89.167 116.523L77.4784 121.315C66.4769 125.249 56.0097 129.745 47.1502 136.99 41.5853 141.347 38.2886 147.986 38.181 155.052L38.181 196.797 40.0894 198.228C50.5494 206.074 78.2131 208.603 93.7613 209.411L99.3742 209.702 90.0901 126.451 92.7881 125.344C97.2695 123.518 100.196 119.156 100.188 114.316L100.188 114.078C109.366 117.826 119.648 117.826 128.827 114.078L128.827 114.316C128.816 119.156 131.741 123.52 136.222 125.349L138.92 126.456 129.633 209.707 135.244 209.416C150.804 208.607 178.468 206.076 188.93 198.233L190.838 196.802ZM85.899 78.7189 85.899 75.7252 102.523 75.7252C127.045 75.7252 123.71 56.1814 134.44 53.3833 137.389 52.8342 140.435 53.2263 143.149 54.5045L143.149 78.7189C143.149 94.528 130.333 107.344 114.524 107.344 98.7149 107.344 85.899 94.528 85.899 78.7189ZM171.762 166.979 150.293 166.979 150.293 162.209 171.762 162.209Z" transform="matrix(1.00437 0 0 1 2527 1569)"/></g></g></g><g><g><g><path d="M105.737 66.6345 84.0318 62.5618 84.0318 62.6795 82.4663 63.5624C74.8967 67.5011 67.0526 70.8882 58.9953 73.697 57.8182 74.0737 56.3822 74.5092 54.7342 74.98 58.5598 76.3572 81.4658 84.3967 91.9771 82.0425 99.0396 80.4652 104.478 74.1914 107.279 70.3659 108.054 69.3219 107.836 67.8474 106.792 67.0724 106.482 66.8422 106.119 66.6917 105.737 66.6345Z" transform="matrix(1 0 0 1 2600 1561)"/><path d="M27.0729 79.4529C38.1139 76.8516 51.5914 73.5675 57.8888 71.5194L57.8888 71.5194 58.8305 71.2134 60.1606 70.7543 60.1606 70.7543C61.5731 70.2482 62.9856 69.7185 64.3745 69.177L65.2809 68.8121 66.2108 68.4355 66.5286 68.306 66.5286 68.306C74.6269 64.9749 81.3363 61.4318 81.3363 61.4318 76.8398 41.2802 59.5603 28.968 37.7843 32.6522 37.1275 30.5684 34.9581 29.3598 32.8405 29.8978L30.8395 30.4158C28.6929 30.9822 27.3811 33.1477 27.8733 35.3124 10.5113 42.0806 4.36697 56.853 8.23956 74.1561L9.78154 81.042C10.0629 82.3084 11.3157 83.1085 12.583 82.8312 15.1373 82.2544 19.6455 81.2303 24.8482 80.0062L24.8482 80.0062 27.2023 79.4647ZM36.9015 33.0995C43.4509 36.4802 48.8621 41.7113 52.4625 48.1426 55.6544 53.7267 57.9539 59.7753 59.2778 66.0695L57.3474 66.7405 57.0296 66.8464C55.7716 60.7002 53.5468 54.7924 50.4379 49.3432 45.9768 41.8099 40.1267 36.6661 33.2408 34.0412ZM23.8477 75.3332C21.776 63.9272 22.1644 53.051 25.0247 43.964 26.0017 40.8931 27.3245 37.9432 28.968 35.1712L32.3109 34.3001C30.1281 37.5066 28.4379 41.0218 27.2965 44.7291 24.5304 53.4159 24.1537 63.8566 26.1194 74.8388Z" transform="matrix(1 0 0 1 2600 1561)"/></g></g></g><g><g><g><path d="M15.3542 15.3542 118.646 15.3542 118.646 118.646 15.3542 118.646Z" transform="matrix(1.47761 0 0 1 2543 1719)"/></g></g></g></g></svg>