<svg width="2676" height="1197" xmlns="http://www.w3.org/2000/svg" xmlns:xlink="http://www.w3.org/1999/xlink" xml:space="preserve" overflow="hidden"><g transform="translate(-60 -363)"><rect x="245.5" y="366.5" width="2310" height="134" stroke="#000000" stroke-width="4.58333" stroke-miterlimit="8" fill="none"/><text font-family="Courier New,Courier New_MSFontService,sans-serif" font-weight="400" font-size="92" transform="matrix(1 0 0 1 299.991 465)">Please wire $500,000 to my bank account.</text><path d="M1026.57 610.128 1043.74 618.052 1087.91 522.359 1122.24 538.207 1078.07 633.9 1095.23 641.824 1045.05 660.304Z" stroke="#000000" stroke-width="4.58333" stroke-miterlimit="8" fill="none" fill-rule="evenodd"/><rect x="75.5001" y="696.5" width="625" height="136" stroke="#000000" stroke-width="4.58333" stroke-miterlimit="8" fill="none"/><text font-family="Courier New,Courier New_MSFontService,sans-serif" font-weight="400" font-size="92" transform="matrix(1 0 0 1 112.522 796)">Please wir</text><rect x="752.5" y="696.5" width="625" height="136" stroke="#000000" stroke-width="4.58333" stroke-miterlimit="8" fill="none"/><text font-family="Courier New,Courier New_MSFontService,sans-serif" font-weight="400" font-size="92" transform="matrix(1 0 0 1 789.466 796)">e $500,000</text><rect x="1424.5" y="696.5" width="624" height="136" stroke="#000000" stroke-width="4.58333" stroke-miterlimit="8" fill="none"/><text font-family="Courier New,Courier New_MSFontService,sans-serif" font-weight="400" font-size="92" transform="matrix(1 0 0 1 1516.09 796)">to my ban</text><rect x="2096.5" y="696.5" width="624" height="136" stroke="#000000" stroke-width="4.58333" stroke-miterlimit="8" fill="none"/><text font-family="Courier New,Courier New_MSFontService,sans-serif" font-weight="400" font-size="92" transform="matrix(1 0 0 1 2133.18 796)">k account.</text><path d="M0 105.561 18.9052 105.561 18.9052 0 56.7153 0 56.7153 105.561 75.6203 105.561 37.8102 143.371Z" stroke="#000000" stroke-width="4.58333" stroke-miterlimit="8" fill="none" fill-rule="evenodd" transform="matrix(-0.90792 0.419144 0.419144 0.90792 1712.62 514.443)"/><path d="M366.58 610.284 383.745 618.208 427.99 522.367 462.319 538.215 418.073 634.056 435.237 641.98 385.061 660.46Z" stroke="#000000" stroke-width="4.58333" stroke-miterlimit="8" fill="none" fill-rule="evenodd"/><path d="M0 105.561 18.9052 105.561 18.9052 0 56.7153 0 56.7153 105.561 75.6203 105.561 37.8102 143.371Z" stroke="#000000" stroke-width="4.58333" stroke-miterlimit="8" fill="none" fill-rule="evenodd" transform="matrix(-0.90792 0.419144 0.419144 0.90792 2345.89 514.443)"/><path d="M337.5 970 356.25 970 356.25 864.5 393.75 864.5 393.75 970 412.5 970 375 1007.5Z" stroke="#000000" stroke-width="4.58333" stroke-miterlimit="8" fill="none" fill-rule="evenodd"/><path d="M1019.5 970 1038.25 970 1038.25 864.5 1075.75 864.5 1075.75 970 1094.5 970 1057 1007.5Z" stroke="#000000" stroke-width="4.58333" stroke-miterlimit="8" fill="none" fill-rule="evenodd"/><path d="M1696.5 970 1715.25 970 1715.25 864.5 1752.75 864.5 1752.75 970 1771.5 970 1734 1007.5Z" stroke="#000000" stroke-width="4.58333" stroke-miterlimit="8" fill="none" fill-rule="evenodd"/><path d="M2370.5 969.5 2389.5 969.5 2389.5 864.5 2427.5 864.5 2427.5 969.5 2446.5 969.5 2408.5 1007.5Z" stroke="#000000" stroke-width="4.58333" stroke-miterlimit="8" fill="none" fill-rule="evenodd"/><rect x="75.5001" y="1041.5" width="625" height="135" stroke="#000000" stroke-width="4.58333" stroke-miterlimit="8" fill="none"/><text font-family="Courier New,Courier New_MSFontService,sans-serif" font-weight="400" font-size="92" transform="matrix(1 0 0 1 112.522 1141)">39!m374C3%</text><rect x="752.5" y="1041.5" width="625" height="135" stroke="#000000" stroke-width="4.58333" stroke-miterlimit="8" fill="none"/><text font-family="Courier New,Courier New_MSFontService,sans-serif" font-weight="400" font-size="92" transform="matrix(1 0 0 1 789.466 1141)">^dh2~fFyco</text><rect x="1427.5" y="1041.5" width="624" height="135" stroke="#000000" stroke-width="4.58333" stroke-miterlimit="8" fill="none"/><text font-family="Courier New,Courier New_MSFontService,sans-serif" font-weight="400" font-size="92" transform="matrix(1 0 0 1 1463.9 1141)">G4se$f)jgd</text><rect x="2096.5" y="1041.5" width="625" height="135" stroke="#000000" stroke-width="4.58333" stroke-miterlimit="8" fill="none"/><text font-family="Courier New,Courier New_MSFontService,sans-serif" font-weight="400" font-size="92" transform="matrix(1 0 0 1 2133.65 1141)">0*nRA3%sgP</text><path d="M0 105.398 18.905 105.398 18.905 0 56.7153 0 56.7153 105.398 75.6203 105.398 37.8102 143.208Z" stroke="#000000" stroke-width="4.58333" stroke-miterlimit="8" fill="none" fill-rule="evenodd" transform="matrix(-0.90792 0.419144 0.419144 0.90792 424.276 1201.02)"/><path d="M0 105.398 18.905 105.398 18.905 0 56.7153 0 56.7153 105.398 75.6203 105.398 37.8102 143.208Z" stroke="#000000" stroke-width="4.58333" stroke-miterlimit="8" fill="none" fill-rule="evenodd" transform="matrix(-0.90792 0.419144 0.419144 0.90792 1086.66 1201.02)"/><path d="M1669.55 1299.14 1686.71 1307.07 1730.89 1211.37 1765.22 1227.22 1721.04 1322.91 1738.21 1330.84 1688.03 1349.32Z" stroke="#000000" stroke-width="4.58333" stroke-miterlimit="8" fill="none" fill-rule="evenodd"/><path d="M2339.21 1296.72 2356.38 1304.64 2400.55 1208.95 2434.88 1224.8 2390.71 1320.49 2407.87 1328.41 2357.69 1346.89Z" stroke="#000000" stroke-width="4.58333" stroke-miterlimit="8" fill="none" fill-rule="evenodd"/><rect x="245.5" y="1381.5" width="2310" height="133" stroke="#000000" stroke-width="4.58333" stroke-miterlimit="8" fill="none"/><text font-family="Courier New,Courier New_MSFontService,sans-serif" font-weight="400" font-size="92" transform="matrix(1 0 0 1 299.991 1479)">39!m374C3%^dh2~fFycoG4se$f)jgd0*nRA3%sgP</text></g></svg>