<svg width="594" height="862" xmlns="http://www.w3.org/2000/svg" xmlns:xlink="http://www.w3.org/1999/xlink" xml:space="preserve" overflow="hidden"><g transform="translate(-1108 -393)"><text font-family="cmr12,cmr12_MSFontService,sans-serif" font-weight="400" font-size="55" transform="matrix(1 0 0 1 1241.41 820)">Must be equal</text><path d="M1646.5 681.5C1646.5 798.584 1638.59 893.5 1628.83 893.5L1191.17 893.5C1181.41 893.5 1173.5 798.584 1173.5 681.5" stroke="#000000" stroke-width="6.875" stroke-miterlimit="8" fill="none" fill-rule="evenodd"/><text font-family="cmr12,cmr12_MSFontService,sans-serif" font-weight="400" font-size="92" transform="matrix(1 0 0 1 1154.61 658)">4 </text><text font-family="Aptos,Aptos_MSFontService,sans-serif" font-weight="400" font-size="92" transform="matrix(1 0 0 1 1229.32 658)">×</text><text font-family="cmr12,cmr12_MSFontService,sans-serif" font-weight="400" font-size="92" transform="matrix(1 0 0 1 1308.19 658)">2</text><text font-family="cmr12,cmr12_MSFontService,sans-serif" font-style="oblique" font-weight="400" font-size="92" transform="matrix(1 0 0 1 1219.41 510)">A</text><text font-family="cmr12,cmr12_MSFontService,sans-serif" font-style="oblique" font-weight="400" font-size="92" transform="matrix(1 0 0 1 1523.81 506)">B</text><text font-family="cmr12,cmr12_MSFontService,sans-serif" font-weight="400" font-size="92" transform="matrix(1 0 0 1 1457.02 658)">2 </text><text font-family="Aptos,Aptos_MSFontService,sans-serif" font-weight="400" font-size="92" transform="matrix(1 0 0 1 1531.73 658)">×</text><text font-family="cmr12,cmr12_MSFontService,sans-serif" font-weight="400" font-size="92" transform="matrix(1 0 0 1 1610.61 658)">3</text><path d="M1489.5 681.5C1489.5 711.324 1487.49 735.5 1485 735.5L1333 735.5C1330.51 735.5 1328.5 711.324 1328.5 681.5" stroke="#000000" stroke-width="6.875" stroke-miterlimit="8" fill="none" fill-rule="evenodd"/><text font-family="cmr12,cmr12_MSFontService,sans-serif" font-weight="400" font-size="92" transform="matrix(1 0 0 1 1303.86 995)">4 </text><text font-family="Aptos,Aptos_MSFontService,sans-serif" font-weight="400" font-size="92" transform="matrix(1 0 0 1 1378.57 995)">×</text><text font-family="cmr12,cmr12_MSFontService,sans-serif" font-weight="400" font-size="92" transform="matrix(1 0 0 1 1457.45 995)">3</text><text font-family="cmr12,cmr12_MSFontService,sans-serif" font-weight="400" font-size="55" transform="matrix(1 0 0 1 1221.34 1186)">The size of </text><text font-family="cmr12,cmr12_MSFontService,sans-serif" font-style="oblique" font-weight="400" font-size="92" transform="matrix(1 0 0 1 1495.27 1186)">C</text><path d="M1405.15 1008 1405.15 1085.32 1402.85 1085.32 1402.85 1008ZM1417.75 1080.74 1404 1108.24 1390.25 1080.74Z"/></g></svg>